<?xml version="1.0" encoding="UTF-8"?>
<svg version="1.1" xmlns="http://www.w3.org/2000/svg" width="400" height="400">
<path d="M0 0 C1.23391228 -0.01058945 1.23391228 -0.01058945 2.49275208 -0.02139282 C36.44592663 -0.24667095 36.44592663 -0.24667095 51.171875 3.203125 C52.06503418 3.40180176 52.95819336 3.60047852 53.87841797 3.80517578 C80.05158526 9.7223948 105.43787555 20.28134731 127.171875 36.203125 C128.73228516 37.33814453 128.73228516 37.33814453 130.32421875 38.49609375 C137.93010108 44.13609215 144.93699192 50.32606186 151.77490234 56.86914062 C152.96618746 58.00671173 154.17117264 59.12990724 155.37890625 60.25 C187.35060068 90.72403868 210.20998236 140.36129218 211.33300781 184.46582031 C211.35254956 185.98756911 211.36630412 187.50940058 211.375 189.03125 C211.38205963 189.85385818 211.38911926 190.67646637 211.39639282 191.52400208 C211.62167095 225.47717663 211.62167095 225.47717663 208.171875 240.203125 C207.87385986 241.54286377 207.87385986 241.54286377 207.56982422 242.90966797 C201.6526052 269.08283526 191.09365269 294.46912555 175.171875 316.203125 C174.41519531 317.24339844 173.65851563 318.28367187 172.87890625 319.35546875 C167.23890785 326.96135108 161.04893814 333.96824192 154.50585938 340.80615234 C153.36828827 341.99743746 152.24509276 343.20242264 151.125 344.41015625 C120.65096132 376.38185068 71.01370782 399.24123236 26.90917969 400.36425781 C25.38743089 400.38379956 23.86559942 400.39755412 22.34375 400.40625 C21.10983772 400.41683945 21.10983772 400.41683945 19.85099792 400.42764282 C-14.10217663 400.65292095 -14.10217663 400.65292095 -28.828125 397.203125 C-30.16786377 396.90510986 -30.16786377 396.90510986 -31.53466797 396.60107422 C-57.70783526 390.6838552 -83.09412555 380.12490269 -104.828125 364.203125 C-105.86839844 363.44644531 -106.90867187 362.68976563 -107.98046875 361.91015625 C-115.58635108 356.27015785 -122.59324192 350.08018814 -129.43115234 343.53710938 C-130.62243746 342.39953827 -131.82742264 341.27634276 -133.03515625 340.15625 C-165.00685068 309.68221132 -187.86623236 260.04495782 -188.98925781 215.94042969 C-189.00879956 214.41868089 -189.02255412 212.89684942 -189.03125 211.375 C-189.03830963 210.55239182 -189.04536926 209.72978363 -189.05264282 208.88224792 C-189.27792095 174.92907337 -189.27792095 174.92907337 -185.828125 160.203125 C-185.62944824 159.30996582 -185.43077148 158.41680664 -185.22607422 157.49658203 C-179.3088552 131.32341474 -168.74990269 105.93712445 -152.828125 84.203125 C-152.07144531 83.16285156 -151.31476563 82.12257813 -150.53515625 81.05078125 C-144.89515785 73.44489892 -138.70518814 66.43800808 -132.16210938 59.60009766 C-131.02453827 58.40881254 -129.90134276 57.20382736 -128.78125 55.99609375 C-97.01652998 22.67028706 -45.85508406 0.26201706 0 0 Z " fill="#EC8B1B" transform="translate(188.828125,-0.203125)"/>
<path d="M0 0 C1.77165074 1.21429301 3.57374273 2.36388534 5.38818359 3.51269531 C6.20931641 4.09792969 7.03044922 4.68316406 7.87646484 5.28613281 C7.87646484 5.94613281 7.87646484 6.60613281 7.87646484 7.28613281 C8.45267578 7.55039063 9.02888672 7.81464844 9.62255859 8.08691406 C14.90520155 10.89760971 20.47912052 15.3294165 22.47021484 21.14550781 C23.96749087 29.03500071 23.94085034 36.37688952 19.48974609 43.23535156 C14.95177866 49.00395423 9.45622682 53.72281871 3.89990234 58.47753906 C0.96426017 61.10148178 -1.74475848 63.93231746 -4.45947266 66.78222656 C-6.12353516 68.28613281 -6.12353516 68.28613281 -8.12353516 68.28613281 C-8.12353516 68.94613281 -8.12353516 69.60613281 -8.12353516 70.28613281 C-8.78353516 70.28613281 -9.44353516 70.28613281 -10.12353516 70.28613281 C-10.12353516 70.94613281 -10.12353516 71.60613281 -10.12353516 72.28613281 C-15.94562094 76.89651546 -22.4731509 79.86727939 -30.00634766 79.58300781 C-36.7662386 78.63512643 -41.57102956 75.01794422 -46.74853516 70.78613281 C-60.14824159 59.96612559 -76.4888229 52.47485293 -93.12353516 48.28613281 C-94.54184845 47.90721178 -95.95980895 47.52696814 -97.37744141 47.14550781 C-120.8557275 40.96771222 -147.63651602 40.86001197 -171.12353516 47.28613281 C-171.86458496 47.47916992 -172.60563477 47.67220703 -173.36914062 47.87109375 C-190.72780177 52.52298578 -208.20912673 60.96874297 -221.78857422 72.80834961 C-227.59078132 77.84596149 -232.91567568 78.71040987 -240.38134766 78.52832031 C-247.47857799 77.9014994 -251.56733692 75.34181662 -256.34619141 70.17285156 C-258.15532665 68.25238492 -260.05334203 66.55888992 -262.06103516 64.84863281 C-265.63802868 61.76978926 -268.94509779 58.49002794 -272.24853516 55.12207031 C-273.85542413 53.54865819 -275.47516408 52.16234266 -277.24853516 50.78613281 C-282.50756021 46.21306755 -287.70572651 40.23102377 -288.45947266 33.11425781 C-288.54033096 25.70763723 -288.39771895 20.45995385 -284.12353516 14.28613281 C-281.98291016 13.08300781 -281.98291016 13.08300781 -280.12353516 12.28613281 C-280.12353516 11.62613281 -280.12353516 10.96613281 -280.12353516 10.28613281 C-278.69677734 8.96435547 -278.69677734 8.96435547 -276.67041016 7.45019531 C-275.91630859 6.88647217 -275.16220703 6.32274902 -274.38525391 5.74194336 C-273.55638672 5.13777588 -272.72751953 4.5336084 -271.87353516 3.91113281 C-271.01888672 3.28698486 -270.16423828 2.66283691 -269.28369141 2.01977539 C-254.4704626 -8.6373696 -238.8400548 -17.42441557 -222.12353516 -24.71386719 C-221.42147949 -25.02662598 -220.71942383 -25.33938477 -219.99609375 -25.66162109 C-205.92242615 -31.85747147 -191.11782382 -35.47430585 -176.12353516 -38.71386719 C-175.22280273 -38.91028809 -174.32207031 -39.10670898 -173.39404297 -39.30908203 C-113.50205908 -51.62453326 -49.37782253 -34.38051201 0 0 Z " fill="#213911" transform="translate(334.12353515625,202.7138671875)"/>
<path d="M0 0 C0.43267018 7.7186181 0.85922881 15.43755738 1.28173828 23.15673828 C1.42587164 25.77725695 1.57135303 28.39770186 1.71826172 31.01806641 C1.93039296 34.80612425 2.13751415 38.59442964 2.34375 42.3828125 C2.40937134 43.53548615 2.47499268 44.68815979 2.54260254 45.87576294 C2.97415375 53.9237879 3.07195985 61.94116291 3 70 C-2.16088769 70.10457648 -7.31660886 70.14324144 -12.47851562 70.12207031 C-14.2322077 70.12401167 -15.98597612 70.14365395 -17.73925781 70.18164062 C-32.30888744 70.47931751 -32.30888744 70.47931751 -36.4152832 66.88720703 C-37.97598343 64.29897552 -39.03101108 61.85663685 -40 59 C-40.54527344 58.02289063 -41.09054688 57.04578125 -41.65234375 56.0390625 C-42.07644531 55.24242187 -42.50054687 54.44578125 -42.9375 53.625 C-45.67377775 48.53610249 -48.59794525 43.57603337 -51.58203125 38.62890625 C-54.08900841 33.98098441 -54.11924184 30.09500997 -54.09765625 24.828125 C-54.0962413 24.1457074 -54.09482635 23.46328979 -54.09336853 22.76019287 C-54.08779084 20.59008316 -54.07524254 18.4200783 -54.0625 16.25 C-54.05748211 14.77474108 -54.05291971 13.29948053 -54.04882812 11.82421875 C-54.03782875 8.21611202 -54.02057953 4.60806625 -54 1 C-50.16719404 0.85173508 -46.33419835 0.70985454 -42.50097656 0.57275391 C-40.59168513 0.5033336 -38.68255524 0.4295121 -36.7734375 0.35546875 C-24.51593445 -0.07787732 -12.263956 -0.05012621 0 0 Z " fill="#ECAA1A" transform="translate(225,92)"/>
<path d="M0 0 C1.08333333 1.89583333 2.16666667 3.79166667 3.25 5.6875 C3.77158691 6.59918945 3.77158691 6.59918945 4.30371094 7.52929688 C6.56349397 11.48051096 8.81592911 15.43578832 11.0625 19.39453125 C11.5894043 20.32112549 12.11630859 21.24771973 12.65917969 22.20239258 C13.70324368 24.0384775 14.7456184 25.87552424 15.78613281 27.71362305 C18.37648861 32.26384376 21.06010441 36.66890381 24 41 C27 46.57142857 27 46.57142857 27 49 C25.55886841 49.18792114 25.55886841 49.18792114 24.08862305 49.37963867 C-0.09760514 52.44995825 -0.09760514 52.44995825 -23.78125 58.08203125 C-27 59 -27 59 -30 59 C-30.36762451 58.34515625 -30.73524902 57.6903125 -31.11401367 57.015625 C-32.80320974 54.00930716 -34.4953328 51.0046464 -36.1875 48 C-36.76564453 46.97003906 -37.34378906 45.94007813 -37.93945312 44.87890625 C-40.51329898 40.31287462 -43.09481065 35.80923282 -45.98828125 31.4375 C-46.65214844 30.303125 -47.31601563 29.16875 -48 28 C-46.67411833 24.02235499 -45.13291446 23.6818566 -41.48828125 21.70703125 C-40.34359375 21.08014404 -39.19890625 20.45325684 -38.01953125 19.80737305 C-36.78389814 19.14233367 -35.54822029 18.47737738 -34.3125 17.8125 C-33.06974389 17.13491229 -31.82755544 16.4562824 -30.5859375 15.77661133 C-28.15366284 14.44570438 -25.71945909 13.1184475 -23.28369141 11.79394531 C-19.33080105 9.63440343 -15.40612952 7.43028259 -11.5 5.1875 C-10.4790625 4.60355469 -9.458125 4.01960938 -8.40625 3.41796875 C-2.60606061 0 -2.60606061 0 0 0 Z " fill="#ECAA1B" transform="translate(161,112)"/>
<path d="M0 0 C13.39151066 6.96905147 25.80236105 15.48275922 38.32421875 23.87744141 C40.87986201 25.58939474 43.43997047 27.29461447 46 29 C41.3124786 38.67230026 35.631687 50.368313 28 58 C21.39720524 57.66986026 15.10455994 56.19684665 8.6640625 54.765625 C3.14355536 53.61208619 -2.41724331 52.78826299 -8 52 C-8.33786484 46.27439765 -8.62820447 40.54927173 -8.87109375 34.81884766 C-8.95450002 32.99496729 -9.05004979 31.17158447 -9.16015625 29.34912109 C-10.17937316 12.24783738 -10.17937316 12.24783738 -3.7265625 4.8125 C-3.15679687 4.214375 -2.58703125 3.61625 -2 3 C-1.34 2.01 -0.68 1.02 0 0 Z " fill="#ECA91A" transform="translate(238,111)"/>
<path d="M0 0 C0.02505615 0.62455078 0.0501123 1.24910156 0.07592773 1.89257812 C0.19300381 4.76187123 0.31521751 7.63092425 0.4375 10.5 C0.47681641 11.48226562 0.51613281 12.46453125 0.55664062 13.4765625 C0.79760617 19.0373059 1.21921169 24.48855309 2 30 C5.465 24.555 5.465 24.555 9 19 C13.3705177 20.09262943 16.30445787 22.0454995 19.9375 24.5625 C24.69057275 27.79548736 29.46112269 30.9507549 34.375 33.9375 C36.58432147 35.29008958 38.79285019 36.64387735 41 38 C42.09006348 38.66829834 42.09006348 38.66829834 43.20214844 39.35009766 C45.55970984 40.80387825 47.90558608 42.27513003 50.25 43.75 C51.37801025 44.44017212 51.37801025 44.44017212 52.52880859 45.14428711 C53.22570801 45.58651611 53.92260742 46.02874512 54.640625 46.484375 C55.26485352 46.87334961 55.88908203 47.26232422 56.53222656 47.66308594 C58.44944682 49.40937638 58.84223524 50.41414636 59 53 C57.99951172 55.1472168 57.99951172 55.1472168 56.4296875 57.44921875 C55.8625 58.29806641 55.2953125 59.14691406 54.7109375 60.02148438 C54.10507812 60.90126953 53.49921875 61.78105469 52.875 62.6875 C48.60971107 68.98635035 44.5671257 75.27561033 41 82 C39.35 81.67 37.7 81.34 36 81 C36.70898438 80.19820313 37.41796875 79.39640625 38.1484375 78.5703125 C41.44092315 74.61886566 44.00429125 70.28844632 46.625 65.875 C47.57364624 64.28794048 48.52410866 62.70196486 49.4765625 61.1171875 C49.88986816 60.42222168 50.30317383 59.72725586 50.72900391 59.01123047 C52 57 52 57 53.65771484 54.86767578 C55.19453514 53.11265211 55.19453514 53.11265211 55 51 C52.89657612 49.41462798 52.89657612 49.41462798 50.1875 47.8125 C49.29417969 47.26207031 48.40085937 46.71164063 47.48046875 46.14453125 C46.95670654 45.82379639 46.43294434 45.50306152 45.89331055 45.17260742 C41.56738893 42.49338092 37.28993449 39.73631116 33 37 C31.03790773 35.75107063 29.07566841 34.50237223 27.11328125 33.25390625 C21.7421875 29.8359375 16.37109375 26.41796875 11 23 C9.64843325 24.65191491 8.320238 26.32294092 7 28 C6.5702034 28.49560928 6.1404068 28.99121857 5.69758606 29.50184631 C1.81698132 34.2934047 1.31527634 37.94386595 1.51171875 43.99609375 C1.51879349 44.82963882 1.52586823 45.6631839 1.53315735 46.52198792 C1.56095115 49.16143913 1.62365611 51.79869969 1.6875 54.4375 C1.71260251 56.2362973 1.73541225 58.03512814 1.75585938 59.83398438 C1.81072786 64.22348903 1.89689125 68.61137427 2 73 C1.34 73 0.68 73 0 73 C-3.34149041 24.21034888 -3.34149041 24.21034888 -3 3 C-3.56992676 3.03029297 -4.13985352 3.06058594 -4.72705078 3.09179688 C-22.16495451 3.98870191 -39.5454571 4.11672277 -57 4 C-56.93072101 8.28725976 -56.8425654 12.57360895 -56.73754883 16.86010742 C-56.70447017 18.31572994 -56.67638603 19.77147547 -56.65356445 21.22729492 C-56.61970079 23.33044436 -56.5673764 25.43248375 -56.51171875 27.53515625 C-56.48553467 28.797229 -56.45935059 30.05930176 -56.43237305 31.35961914 C-55.79915049 36.6910599 -53.61439974 41.13509588 -50.984375 45.76171875 C-50.62335693 46.40028809 -50.26233887 47.03885742 -49.89038086 47.69677734 C-49.32589233 48.68218506 -49.32589233 48.68218506 -48.75 49.6875 C-48.3588501 50.3779541 -47.9677002 51.0684082 -47.56469727 51.77978516 C-44.51807606 57.14248235 -41.39129248 62.45530912 -38.21484375 67.7421875 C-37 70 -37 70 -37 72 C-37.99 72 -38.98 72 -40 72 C-40.29390625 71.44957031 -40.5878125 70.89914063 -40.890625 70.33203125 C-44.49825202 63.64548117 -48.23361324 57.03566456 -52 50.4375 C-52.49790039 49.56391846 -52.99580078 48.69033691 -53.50878906 47.7902832 C-57.44864879 40.90326907 -61.45324223 34.05203111 -65.67578125 27.33374023 C-67 25 -67 25 -67 23 C-73.47865739 26.15528951 -79.74028715 29.61999084 -86 33.1875 C-88.03247247 34.34128608 -90.06502506 35.49493106 -92.09765625 36.6484375 C-93.59063232 37.49680176 -93.59063232 37.49680176 -95.11376953 38.36230469 C-99.21565242 40.68978146 -103.32565894 43.00267424 -107.4375 45.3125 C-108.11103516 45.69108154 -108.78457031 46.06966309 -109.47851562 46.4597168 C-110.98554319 47.30671615 -112.4927475 48.15340099 -114 49 C-112.54048424 52.96539066 -110.6553174 56.44656048 -108.48828125 60.0703125 C-107.80624633 61.22502761 -107.12461742 62.37998262 -106.44335938 63.53515625 C-105.37444642 65.33945566 -104.30247525 67.14170567 -103.22338867 68.93994141 C-102.17750797 70.68647445 -101.14454517 72.4401205 -100.11328125 74.1953125 C-99.49235596 75.23703613 -98.87143066 76.27875977 -98.23168945 77.35205078 C-97 80 -97 80 -98 83 C-100.6627616 80.60118705 -102.25631516 78.04339806 -103.99609375 74.921875 C-104.55490234 73.92542969 -105.11371094 72.92898437 -105.68945312 71.90234375 C-106.26630859 70.86207031 -106.84316406 69.82179688 -107.4375 68.75 C-108.58196761 66.70308942 -109.72649739 64.65621359 -110.87109375 62.609375 C-111.40718262 61.64064453 -111.94327148 60.67191406 -112.49560547 59.67382812 C-113.77494007 57.40000915 -115.11157235 55.17811991 -116.47265625 52.953125 C-117.22869141 51.49132812 -117.22869141 51.49132812 -118 50 C-116.74304228 46.22912683 -115.78314249 46.08072224 -112.3203125 44.31640625 C-107.86977848 41.98760501 -103.47158544 39.59328713 -99.1171875 37.08984375 C-98.52657532 36.75159576 -97.93596313 36.41334778 -97.32745361 36.06484985 C-95.50935448 35.02346776 -93.69211222 33.98060304 -91.875 32.9375 C-88.31155492 30.89346699 -84.74704109 28.85141672 -81.17871094 26.81591797 C-79.19334021 25.68172538 -77.21157235 24.54117465 -75.23535156 23.39111328 C-74.43838867 22.93333496 -73.64142578 22.47555664 -72.8203125 22.00390625 C-72.14500488 21.61146729 -71.46969727 21.21902832 -70.77392578 20.81469727 C-69 20 -69 20 -66 20 C-64.02 23.3 -62.04 26.6 -60 30 C-60 20.76 -60 11.52 -60 2 C-54.02682647 1.7116399 -48.05362805 1.42569666 -42.08007812 1.14550781 C-40.0552743 1.04985284 -38.03053194 0.95288626 -36.00585938 0.85449219 C-23.9928204 0.27168139 -12.02862741 -0.15712285 0 0 Z " fill="#B14E01" transform="translate(228,89)"/>
<path d="M0 0 C2.475 0.495 2.475 0.495 5 1 C5.61701944 12.79804833 3.71980602 23.65536298 1.5 35.1875 C-1.60923751 50.46883628 -1.60923751 50.46883628 -2 66 C-2.99 66 -3.98 66 -5 66 C-5.74446516 55.48123373 -3.49403237 45.40206808 -1.5625 35.125 C0.49815441 24.08686596 2.50793383 13.24172048 3 2 C-0.91895255 5.58052832 -3.48677437 9.14441412 -5.8125 13.9375 C-6.14652832 14.61337158 -6.48055664 15.28924316 -6.82470703 15.9855957 C-10.95090161 24.60670452 -14.05248343 33.64185234 -17.16552734 42.66674805 C-18.04931873 45.13789909 -19.01165439 47.56899296 -20 50 C-20.66 50 -21.32 50 -22 50 C-21.90912109 49.33581055 -21.81824219 48.67162109 -21.72460938 47.98730469 C-21.30822297 44.90924827 -20.90407359 41.82969604 -20.5 38.75 C-20.35691406 37.70585937 -20.21382812 36.66171875 -20.06640625 35.5859375 C-19.1283526 28.34952364 -18.8232969 21.2939111 -19 14 C-22.94902302 15.31634101 -23.79464711 17.56422714 -25.625 21.0625 C-25.96764893 21.71154297 -26.31029785 22.36058594 -26.66333008 23.02929688 C-34.48385824 38.41995523 -41.95885909 56.92526094 -45 74 C-45.99 74 -46.98 74 -48 74 C-47.28976378 66.23753587 -45.86156108 58.69782452 -44.3125 51.0625 C-44.11716171 50.09112595 -44.11716171 50.09112595 -43.9178772 49.10012817 C-41.38222255 36.50212528 -38.54953726 23.97859 -35.5690918 11.47827148 C-34.99850862 8.99350535 -34.48788494 6.50219678 -34 4 C-40.85755421 6.5088613 -45.0458851 11.98320826 -48.1953125 18.45703125 C-49.07143197 21.22573889 -49.20218955 23.41789172 -49.125 26.3125 C-49.10695312 27.19550781 -49.08890625 28.07851563 -49.0703125 28.98828125 C-49.04710937 29.65214844 -49.02390625 30.31601562 -49 31 C-46.69 31.33 -44.38 31.66 -42 32 C-42 32.66 -42 33.32 -42 34 C-45.41756151 34.31068741 -47.40106977 34.3625104 -50.375 32.5625 C-52.83842022 28.67787581 -52.79802409 25.47313503 -52 21 C-49.62921767 14.21284882 -45.62013615 7.57231416 -40 3 C-37.41359772 2.01470389 -35.82540757 1.94349185 -33 2 C-32 3 -32 3 -31.765625 5.796875 C-31.85145808 11.42180252 -33.4219281 16.81496277 -34.75 22.25 C-35.30097492 24.56474865 -35.85044095 26.87985694 -36.3984375 29.1953125 C-36.67010742 30.3390332 -36.94177734 31.48275391 -37.22167969 32.66113281 C-38.34225443 37.46821569 -39.37169599 42.29226276 -40.375 47.125 C-40.54225586 47.92969727 -40.70951172 48.73439453 -40.88183594 49.56347656 C-41.25675806 51.375197 -41.62876908 53.18751961 -42 55 C-41.68289062 53.94425781 -41.36578125 52.88851562 -41.0390625 51.80078125 C-38.23769149 42.79666847 -34.92612535 34.20803276 -30.875 25.6875 C-30.45557129 24.79909424 -30.03614258 23.91068848 -29.60400391 22.99536133 C-27.45629535 18.57403237 -25.30602395 14.69451986 -22 11 C-19.5625 11.375 -19.5625 11.375 -17 12 C-15.34502644 15.30994713 -15.89915665 18.99123 -15.9375 22.625 C-15.94201172 23.42679687 -15.94652344 24.22859375 -15.95117188 25.0546875 C-15.96296832 27.03649006 -15.98090395 29.01825433 -16 31 C-15.70867187 30.20078125 -15.41734375 29.4015625 -15.1171875 28.578125 C-7.35890411 7.79178082 -7.35890411 7.79178082 0 0 Z " fill="#A84402" transform="translate(201,256)"/>
<path d="M0 0 C1.46224799 0.42423244 2.91973412 0.86490245 4.375 1.3125 C5.18710937 1.55613281 5.99921875 1.79976562 6.8359375 2.05078125 C9 3 9 3 11 6 C12.55258337 14.31857828 9.55615386 22.56951009 6 30 C4.07421875 32.390625 4.07421875 32.390625 2 34 C-2.98010142 34.47429537 -6.46236032 34.26881984 -11 32 C-10.44645024 25.10039759 -7.97208711 19.04630366 -5.5 12.625 C-5.08363281 11.52027344 -4.66726562 10.41554687 -4.23828125 9.27734375 C-1.14885603 1.14885603 -1.14885603 1.14885603 0 0 Z " fill="#E6E6CD" transform="translate(258,191)"/>
<path d="M0 0 C2.52229728 2.73576565 4.57268953 5.55668292 6 9 C5.73313967 12.39505645 5.52441017 13.5391547 2.9375 15.8125 C2.298125 16.204375 1.65875 16.59625 1 17 C2.35176901 21.05530702 4.37272553 24.02527366 6.9765625 27.3515625 C8 29 8 29 8 32 C4.78557662 30.63284739 3.15276657 29.2562184 1.16015625 26.40234375 C0.65419922 25.68240234 0.14824219 24.96246094 -0.37304688 24.22070312 C-1.14745117 23.09051758 -1.14745117 23.09051758 -1.9375 21.9375 C-2.44990234 21.21111328 -2.96230469 20.48472656 -3.49023438 19.73632812 C-7.01549302 14.67016862 -10.10099047 9.44679445 -13 4 C-8.91718613 -0.18632183 -5.88746304 -2.23723595 0 0 Z " fill="#E5E8CF" transform="translate(88,222)"/>
<path d="M0 0 C4.25067222 0.84086593 5.81348439 2.60760061 8.6875 5.875 C9.55632812 6.86242187 10.42515625 7.84984375 11.3203125 8.8671875 C12.21552692 9.90975695 13.10875339 10.95403662 14 12 C14.43666992 12.51079102 14.87333984 13.02158203 15.32324219 13.54785156 C22.76985462 22.30956385 22.76985462 22.30956385 24 26 C20.31245243 25.50168276 18.39509338 24.89932357 16 22 C14.35 22.66 12.7 23.32 11 24 C11.33 26.64 11.66 29.28 12 32 C9 31 9 31 8.04858398 29.11743164 C7.65135132 27.90108032 7.65135132 27.90108032 7.24609375 26.66015625 C6.94896484 25.76103516 6.65183594 24.86191406 6.34570312 23.93554688 C5.89614258 22.51338867 5.89614258 22.51338867 5.4375 21.0625 C5.13392578 20.14919922 4.83035156 19.23589844 4.51757812 18.29492188 C2.55774907 12.26172264 1.09965731 6.24608744 0 0 Z " fill="#EBE9D2" transform="translate(102,208)"/>
<path d="M0 0 C-0.17179143 7.09030066 -1.53834997 13.64003698 -3.4375 20.4375 C-3.65494873 21.21851074 -3.87239746 21.99952148 -4.09643555 22.80419922 C-5.12612514 26.37734979 -6.13857068 29.75332095 -8 33 C-8.66 33 -9.32 33 -10 33 C-9.67 30.36 -9.34 27.72 -9 25 C-11.31 24.67 -13.62 24.34 -16 24 C-16.680625 24.99 -16.680625 24.99 -17.375 26 C-17.91125 26.66 -18.4475 27.32 -19 28 C-19.66 28 -20.32 28 -21 28 C-20.61253444 22.6173703 -17.5031636 19.22345144 -14.3125 15.125 C-13.79494141 14.44308594 -13.27738281 13.76117188 -12.74414062 13.05859375 C-10.13790085 9.6506837 -7.46688436 6.29650705 -4.73046875 2.9921875 C-4.25375732 2.41581543 -3.7770459 1.83944336 -3.28588867 1.24560547 C-2 0 -2 0 0 0 Z " fill="#E8E7CE" transform="translate(292,204)"/>
<path d="M0 0 C0.66 0 1.32 0 2 0 C2.99 2.64 3.98 5.28 5 8 C5.66 6.68 6.32 5.36 7 4 C7.66 4 8.32 4 9 4 C8.27356361 8.14805707 6.22689285 11.67810449 4.3125 15.375 C-1.54988612 26.92727166 -6.46980293 38.49894918 -10 51 C-10.33 51 -10.66 51 -11 51 C-10.27466451 43.86899085 -8.76883946 36.98562787 -7.1875 30 C-6.92050293 28.80914795 -6.65350586 27.6182959 -6.37841797 26.39135742 C-4.38531724 17.55903282 -2.28117777 8.76240637 0 0 Z " fill="#E98821" transform="translate(169,263)"/>
<path d="M0 0 C2.4375 0.6875 2.4375 0.6875 5 2 C7.05872756 6.94479424 4.86893186 11.43166677 3.1875 16.1875 C2.91357422 17.00669922 2.63964844 17.82589844 2.35742188 18.66992188 C0.28148496 24.71851504 0.28148496 24.71851504 -2 27 C-5.625 26.625 -5.625 26.625 -9 26 C-8.27543647 21.42004288 -6.71850137 17.30480931 -5.0625 13 C-4.79759766 12.30132812 -4.53269531 11.60265625 -4.25976562 10.8828125 C-2.87510033 7.24076483 -1.46049743 3.61243809 0 0 Z " fill="#1F3712" transform="translate(260,195)"/>
<path d="M0 0 C3.5 0.375 3.5 0.375 6.5 2.375 C6.6875 5.5 6.6875 5.5 6.5 8.375 C5.84 8.375 5.18 8.375 4.5 8.375 C4.17 6.725 3.84 5.075 3.5 3.375 C1.85 3.705 0.2 4.035 -1.5 4.375 C-2.34550101 9.81036362 -1.1498374 12.24389459 2 16.75 C4.98717794 21.14896792 6.48193413 24.20983314 5.984375 29.55859375 C5.5 31.375 5.5 31.375 3.9375 33.4375 C0.56499207 34.73461843 -1.92114924 34.8304901 -5.5 34.375 C-7.5 32.625 -7.5 32.625 -8.5 30.375 C-8.1875 28.125 -8.1875 28.125 -7.5 26.375 C-6.51 26.375 -5.52 26.375 -4.5 26.375 C-4.5 28.025 -4.5 29.675 -4.5 31.375 C-2.85 31.045 -1.2 30.715 0.5 30.375 C1.37192976 22.67295383 -1.41941307 17.80672843 -5.5 11.375 C-5.83 11.045 -6.16 10.715 -6.5 10.375 C-6.78551032 7.1630089 -6.76287757 4.9626087 -5.4375 2 C-3.5 0.375 -3.5 0.375 0 0 Z " fill="#E3E2CA" transform="translate(218.5,183.625)"/>
<path d="M0 0 C2.04040776 2.04040776 3 3.08325244 3 6 C1 5 -1 4 -3 3 C-5.09821215 3.39938767 -5.09821215 3.39938767 -7 4 C-5.50570966 9.33675122 -3.90445649 11.39927469 0.9375 14.1875 C1.79214844 14.63480469 2.64679688 15.08210937 3.52734375 15.54296875 C6.8070033 17.47553275 9.3665896 19.38653669 10.78515625 23 C11.07545163 25.09339769 11.24991873 26.89723554 11 29 C8.9375 31.5 8.9375 31.5 6 33 C2.6875 33.25 2.6875 33.25 0 33 C-0.66 31.02 -1.32 29.04 -2 27 C-0.68 27.33 0.64 27.66 2 28 C2 28.66 2 29.32 2 30 C3.65 29.67 5.3 29.34 7 29 C4.76802626 20.51849977 -0.06221628 17.17121188 -7.23828125 12.5625 C-10.26560697 9.87751045 -9.74443472 6.89737048 -10 3 C-6.7217397 -0.02608643 -4.42815603 -0.6595126 0 0 Z " fill="#DEE6C8" transform="translate(134,196)"/>
<path d="M0 0 C0 0.99 0 1.98 0 3 C-0.66 3 -1.32 3 -2 3 C-2 3.66 -2 4.32 -2 5 C-0.75863281 5.13341797 -0.75863281 5.13341797 0.5078125 5.26953125 C4.70595248 6.14766567 8.07946143 7.74055175 11.875 9.6875 C12.58100342 10.04255615 13.28700684 10.3976123 14.0144043 10.76342773 C18.57168737 13.1086316 22.65797363 15.66434748 26.51953125 19.06640625 C27.25236328 19.52853516 27.25236328 19.52853516 28 20 C28.99 19.67 29.98 19.34 31 19 C31.20625 19.556875 31.4125 20.11375 31.625 20.6875 C33.94569205 24.59048208 37.36587899 27.04676275 41.25 29.3125 C47.37453466 30.84363367 53.86710635 30.2911355 60 29 C60 27.68 60 26.36 60 25 C63 24 63 24 66 25 C65.505 23.515 65.505 23.515 65 22 C66.32 22 67.64 22 69 22 C69 22.66 69 23.32 69 24 C68.34 24 67.68 24 67 24 C67 24.66 67 25.32 67 26 C61.17791422 30.61038265 54.65038426 33.58114658 47.1171875 33.296875 C40.35729656 32.34899361 35.5525056 28.73181141 30.375 24.5 C24.42537756 19.6589287 17.98639928 16.08633945 11.1875 12.5625 C10.20894043 12.05460937 9.23038086 11.54671875 8.22216797 11.0234375 C2.90818528 8.32254764 -2.3718734 5.96484893 -8 4 C-2.7826087 0 -2.7826087 0 0 0 Z " fill="#423B04" transform="translate(257,249)"/>
<path d="M0 0 C2.19640852 -0.00217442 4.39230385 -0.02033675 6.58862305 -0.03930664 C14.90526043 -0.07136009 22.86648393 0.45536577 31.03198242 2.18530273 C31.03198242 2.51530273 31.03198242 2.84530273 31.03198242 3.18530273 C29.91243164 3.07702148 29.91243164 3.07702148 28.77026367 2.96655273 C9.69148992 1.40022239 -10.3196336 0.25155705 -28.96801758 5.18530273 C-28.96801758 5.84530273 -28.96801758 6.50530273 -28.96801758 7.18530273 C-26.32801758 7.51530273 -23.68801758 7.84530273 -20.96801758 8.18530273 C-20.96801758 8.84530273 -20.96801758 9.50530273 -20.96801758 10.18530273 C-24.59801758 10.18530273 -28.22801758 10.18530273 -31.96801758 10.18530273 C-31.96801758 10.84530273 -31.96801758 11.50530273 -31.96801758 12.18530273 C-34.34301758 12.81030273 -34.34301758 12.81030273 -36.96801758 13.18530273 C-37.62801758 12.52530273 -38.28801758 11.86530273 -38.96801758 11.18530273 C-37.31801758 10.85530273 -35.66801758 10.52530273 -33.96801758 10.18530273 C-33.96801758 9.52530273 -33.96801758 8.86530273 -33.96801758 8.18530273 C-39.34321053 8.67395664 -43.86158121 9.69033308 -48.88989258 11.66186523 C-51.28559729 12.26529462 -52.65386107 11.96711237 -54.96801758 11.18530273 C-36.79423466 4.36160452 -19.54178325 -0.00216051 0 0 Z " fill="#D88C27" transform="translate(197.968017578125,244.814697265625)"/>
<path d="M0 0 C3.3 0 6.6 0 10 0 C9.67 0.66 9.34 1.32 9 2 C7.35 2 5.7 2 4 2 C4.33 5.96 4.66 9.92 5 14 C6.98 14 8.96 14 11 14 C11 14.66 11 15.32 11 16 C9.35 16.33 7.7 16.66 6 17 C6.33 21.29 6.66 25.58 7 30 C8.98 29.67 10.96 29.34 13 29 C13.66 29.66 14.32 30.32 15 31 C11.19788277 32.78923164 8.20417542 33.4671306 4 33 C1.55714781 29.33572171 1.59384874 26.37721907 1.4375 22.125 C1.36560923 20.59760762 1.29268007 19.07026378 1.21875 17.54296875 C1.18394531 16.78161621 1.14914063 16.02026367 1.11328125 15.23583984 C0.85557945 10.14956166 0.41486309 5.07545267 0 0 Z " fill="#DDDDC6" transform="translate(172,185)"/>
<path d="M0 0 C2 2 2 2 2 9 C-16.315 8.505 -16.315 8.505 -35 8 C-35.66 6.68 -36.32 5.36 -37 4 C-36.39414063 4.0721875 -35.78828125 4.144375 -35.1640625 4.21875 C-24.12990973 5.73011707 -24.12990973 5.73011707 -13.5 3.5 C-8.89955708 1.52838161 -4.93030961 1.73215622 0 2 C0 1.34 0 0.68 0 0 Z " fill="#E0A523" transform="translate(226,153)"/>
<path d="M0 0 C0.33 0 0.66 0 1 0 C1 2.31 1 4.62 1 7 C6.28 7 11.56 7 17 7 C14.03 6.505 14.03 6.505 11 6 C11 5.34 11 4.68 11 4 C9.02 4 7.04 4 5 4 C5 3.34 5 2.68 5 2 C12.13740412 1.62434715 19.50933694 2.9710239 26 6 C26 7.32 26 8.64 26 10 C27.65 9.67 29.3 9.34 31 9 C31 9.99 31 10.98 31 12 C33.475 12.495 33.475 12.495 36 13 C36 13.33 36 13.66 36 14 C29.40381187 13.43136309 23.12409695 12.20118821 16.6640625 10.765625 C11.14355536 9.61208619 5.58275669 8.78826299 0 8 C0 5.36 0 2.72 0 0 Z M22 4 C24 5 24 5 24 5 Z " fill="#E1A726" transform="translate(230,155)"/>
<path d="M0 0 C-0.33 0.66 -0.66 1.32 -1 2 C-1.99 2 -2.98 2 -4 2 C-2.85393515 10.09785292 -1.06447909 17.8090525 1.1953125 25.65234375 C1.90543944 28.60660969 2.17157438 30.98601002 2 34 C1.01 33.67 0.02 33.34 -1 33 C-1.84375 31.13671875 -1.84375 31.13671875 -2.5 28.6875 C-2.86544922 27.33785156 -2.86544922 27.33785156 -3.23828125 25.9609375 C-3.61533203 24.49527344 -3.61533203 24.49527344 -4 23 C-4.28230469 21.98164063 -4.56460938 20.96328125 -4.85546875 19.9140625 C-6.31651936 14.46770484 -7.38460236 9.64083465 -7 4 C-8.98 4 -10.96 4 -13 4 C-13 3.34 -13 2.68 -13 2 C-4.738041 -1.62870159 -4.738041 -1.62870159 0 0 Z " fill="#DEE3CA" transform="translate(160,188)"/>
<path d="M0 0 C0.99 0.66 1.98 1.32 3 2 C1.88368586 3.83863505 0.75670373 5.67079723 -0.375 7.5 C-1.00148438 8.5209375 -1.62796875 9.541875 -2.2734375 10.59375 C-2.84320313 11.3878125 -3.41296875 12.181875 -4 13 C-4.66 13 -5.32 13 -6 13 C-6.33 15.97 -6.66 18.94 -7 22 C-7.66 22 -8.32 22 -9 22 C-9.41746608 24.87364791 -9.41746608 24.87364791 -9 28 C-6.60943058 29.9354148 -6.60943058 29.9354148 -4 31 C-6 32 -6 32 -8.3828125 31.22265625 C-9.28773438 30.83980469 -10.19265625 30.45695312 -11.125 30.0625 C-12.03507812 29.68222656 -12.94515625 29.30195313 -13.8828125 28.91015625 C-14.58148438 28.60980469 -15.28015625 28.30945313 -16 28 C-15.34158834 24.24432639 -13.64711227 21.56014376 -11.62109375 18.359375 C-10.94755859 17.28945312 -10.27402344 16.21953125 -9.58007812 15.1171875 C-8.87302734 14.00601563 -8.16597656 12.89484375 -7.4375 11.75 C-6.71890513 10.61229224 -6.00080062 9.4742746 -5.28320312 8.3359375 C-3.52693877 5.55420336 -1.76571754 2.77573964 0 0 Z " fill="#EC8223" transform="translate(285,143)"/>
<path d="M0 0 C0.33 0 0.66 0 1 0 C1 5.28 1 10.56 1 16 C0.34 16 -0.32 16 -1 16 C-1.02505615 16.64960693 -1.0501123 17.29921387 -1.07592773 17.96850586 C-1.19313851 20.95831088 -1.31528919 23.94789535 -1.4375 26.9375 C-1.49647461 28.46987305 -1.49647461 28.46987305 -1.55664062 30.03320312 C-1.80720001 36.06590209 -2.25643055 42.007705 -3 48 C-3.66 48 -4.32 48 -5 48 C-5.33 49.98 -5.66 51.96 -6 54 C-8.50779238 50.23831142 -8.00348523 49.11448926 -7.28515625 44.7421875 C-7.08422363 43.48889648 -6.88329102 42.23560547 -6.67626953 40.94433594 C-6.45196359 39.62936623 -6.2265445 38.3145859 -6 37 C-5.79358887 35.76797852 -5.58717773 34.53595703 -5.37451172 33.26660156 C-4.7426713 29.55018202 -4.09318101 25.83728298 -3.4375 22.125 C-1.48370935 11.09730981 -1.48370935 11.09730981 0 0 Z " fill="#E98624" transform="translate(206,263)"/>
<path d="M0 0 C2.4375 0.375 2.4375 0.375 5 1 C5.33 1.66 5.66 2.32 6 3 C5.236875 2.896875 4.47375 2.79375 3.6875 2.6875 C2.800625 2.790625 1.91375 2.89375 1 3 C-0.81883009 5.3832946 -2 6.95818337 -2 10 C-1.071875 8.7625 -1.071875 8.7625 -0.125 7.5 C0.57625 6.675 1.2775 5.85 2 5 C2.66 5 3.32 5 4 5 C4.66 7.97 5.32 10.94 6 14 C6.99 14 7.98 14 9 14 C9.268125 13.443125 9.53625 12.88625 9.8125 12.3125 C11.10899496 9.78774666 12.42476323 7.36285516 14 5 C14.66 5 15.32 5 16 5 C14.66327263 8.59888139 13.366066 11.95791514 11 15 C7.8125 15.8125 7.8125 15.8125 5 16 C3 13 3 13 3 9 C2.34 9 1.68 9 1 9 C0.7525 9.639375 0.505 10.27875 0.25 10.9375 C-1 13 -1 13 -3.078125 13.62890625 C-4.02945313 13.81259766 -4.02945313 13.81259766 -5 14 C-4.7444669 8.13551546 -4.34242429 4.34242429 0 0 Z " fill="#A84601" transform="translate(216,285)"/>
<path d="M0 0 C0.66 0 1.32 0 2 0 C3.1171875 1.703125 3.1171875 1.703125 4 4 C3.3203125 6.359375 3.3203125 6.359375 2.125 8.75 C1.54105469 9.94882813 1.54105469 9.94882813 0.9453125 11.171875 C0.63335937 11.77515625 0.32140625 12.3784375 0 13 C3.37436186 13.33380814 3.37436186 13.33380814 7 13 C8.98239527 11.13875077 8.98239527 11.13875077 10 9 C10 9.66 10 10.32 10 11 C10.99 10.67 11.98 10.34 13 10 C12.62120265 12.19702465 12.09789619 13.83875922 10.9375 15.75 C7.82879617 17.75561538 4.54502784 17.42071342 1 17 C-2 16 -2 16 -4 15 C-3.43179252 9.54520815 -2.05362055 5.08940744 0 0 Z " fill="#E2E5CD" transform="translate(251,208)"/>
<path d="M0 0 C1.32 0.33 2.64 0.66 4 1 C4 1.66 4 2.32 4 3 C5.11375 3.20625 6.2275 3.4125 7.375 3.625 C8.57125 4.07875 9.7675 4.5325 11 5 C12.125 8 12.125 8 13 11 C15.36186139 12.26145768 15.36186139 12.26145768 18 13 C19.34275169 13.98731742 20.67732273 14.98594743 22 16 C27.58384613 17.86128204 33.31147144 17.13770571 39 16 C39.33 15.01 39.66 14.02 40 13 C43 11 43 11 45.1875 11.375 C45.785625 11.58125 46.38375 11.7875 47 12 C40.58859169 17.800798 35.4316948 19.4541267 26.7421875 19.2421875 C19.66537297 18.61716969 15.564181 16.07541303 10.8046875 10.91015625 C8.25564839 8.21214732 5.43581532 5.87152759 2.6015625 3.48046875 C1 2 1 2 0 0 Z " fill="#3E3803" transform="translate(67,262)"/>
<path d="M0 0 C0.33 0.66 0.66 1.32 1 2 C2.98 2 4.96 2 7 2 C7.33 1.34 7.66 0.68 8 0 C10.64 0.99 13.28 1.98 16 3 C16 3.33 16 3.66 16 4 C21.94 4.99 21.94 4.99 28 6 C28 6.33 28 6.66 28 7 C7.705 6.505 7.705 6.505 -13 6 C-13 5.67 -13 5.34 -13 5 C-12.21625 4.896875 -11.4325 4.79375 -10.625 4.6875 C-7.66954819 4.22404978 -7.66954819 4.22404978 -6 1 C-2.875 0.3125 -2.875 0.3125 0 0 Z " fill="#393D0A" transform="translate(197,239)"/>
<path d="M0 0 C0.99 0 1.98 0 3 0 C3 11.22 3 22.44 3 34 C2.01 34 1.02 34 0 34 C0 22.78 0 11.56 0 0 Z " fill="#F6F4DF" transform="translate(197,183)"/>
<path d="M0 0 C0.495 0.99 0.495 0.99 1 2 C-0.32 2.33 -1.64 2.66 -3 3 C-3 3.66 -3 4.32 -3 5 C-3.9590625 5.433125 -3.9590625 5.433125 -4.9375 5.875 C-7.15206079 6.82823451 -7.15206079 6.82823451 -8 9 C-8.66 9 -9.32 9 -10 9 C-10 9.66 -10 10.32 -10 11 C-10.66 11 -11.32 11 -12 11 C-12 11.66 -12 12.32 -12 13 C-14.31 13.66 -16.62 14.32 -19 15 C-19 15.66 -19 16.32 -19 17 C-21.83392926 17.08174796 -24.66544819 17.14084985 -27.5 17.1875 C-28.29148437 17.21263672 -29.08296875 17.23777344 -29.8984375 17.26367188 C-35.62130318 17.33403498 -39.75203857 16.29297398 -45 14 C-45 13.34 -45 12.68 -45 12 C-45.99 12 -46.98 12 -48 12 C-48.66 10.02 -49.32 8.04 -50 6 C-49.5875 6.39832031 -49.175 6.79664063 -48.75 7.20703125 C-41.88535787 13.50472749 -36.07719237 15.31580512 -26.80859375 15.3984375 C-20.1305592 14.45106681 -15.40088283 11.08426038 -10.3125 6.9375 C-3.64171028 1.56832778 -3.64171028 1.56832778 0 0 Z " fill="#CF8A2A" transform="translate(126,265)"/>
<path d="M0 0 C0.66 0 1.32 0 2 0 C2 1.32 2 2.64 2 4 C3.65 4.33 5.3 4.66 7 5 C7.33 6.65 7.66 8.3 8 10 C9.32 10 10.64 10 12 10 C13.6446674 7.53673288 13.6446674 7.53673288 15 5 C15.66 5 16.32 5 17 5 C15.87548273 7.9719385 14.77706209 10.33440687 13 13 C10.5625 13.5 10.5625 13.5 8 13 C6.18116991 10.6167054 5 9.04181663 5 6 C1.18699218 9.2870757 -0.22972246 12.39727838 -2 17 C-2.66 17 -3.32 17 -4 17 C-3.71561048 15.10306139 -3.42216208 13.20747973 -3.125 11.3125 C-2.96257812 10.25675781 -2.80015625 9.20101563 -2.6328125 8.11328125 C-2.04106931 5.20205086 -1.1968194 2.71044393 0 0 Z " fill="#AF4C04" transform="translate(235,285)"/>
<path d="M0 0 C6.81494706 2.06854423 13.15330129 4.78410475 19.5625 7.875 C20.90344727 8.50728516 20.90344727 8.50728516 22.27148438 9.15234375 C27.76408901 11.7801151 32.89716657 14.67750169 38 18 C35 20 35 20 32.875 19.8125 C32.25625 19.544375 31.6375 19.27625 31 19 C30.67 18.01 30.34 17.02 30 16 C27.98491642 15.26676204 27.98491642 15.26676204 26 15 C26 14.34 26 13.68 26 13 C22.7 12.67 19.4 12.34 16 12 C15.67 10.68 15.34 9.36 15 8 C14.34 8 13.68 8 13 8 C13 7.34 13 6.68 13 6 C10.69 5.67 8.38 5.34 6 5 C6 4.34 6 3.68 6 3 C3.03 2.505 3.03 2.505 0 2 C0 1.34 0 0.68 0 0 Z " fill="#3F3904" transform="translate(283,176)"/>
<path d="M0 0 C0.495 0.99 0.495 0.99 1 2 C-1.34840999 5.52261498 -3.09710149 6.25668299 -6.875 8.0625 C-7.92429687 8.56910156 -8.97359375 9.07570312 -10.0546875 9.59765625 C-11.79608653 10.4267839 -13.54801137 11.23525741 -15.3203125 11.99609375 C-17.34926803 12.96098732 -17.34926803 12.96098732 -18 16 C-18.66 16 -19.32 16 -20 16 C-20.268125 16.639375 -20.53625 17.27875 -20.8125 17.9375 C-22 20 -22 20 -25 21 C-26.42857119 22.40105576 -26.42857119 22.40105576 -27.6875 24.0625 C-28.8321875 25.5165625 -28.8321875 25.5165625 -30 27 C-30.66 26.67 -31.32 26.34 -32 26 C-29.375 21.125 -29.375 21.125 -26 20 C-26 19.34 -26 18.68 -26 18 C-24.36694336 16.55126953 -24.36694336 16.55126953 -22.08984375 14.8828125 C-21.26419922 14.27566406 -20.43855469 13.66851562 -19.58789062 13.04296875 C-18.71326172 12.41003906 -17.83863281 11.77710938 -16.9375 11.125 C-16.08994141 10.49980469 -15.24238281 9.87460938 -14.36914062 9.23046875 C-9.71808826 5.83286602 -5.06855405 2.73715673 0 0 Z " fill="#453B05" transform="translate(80,195)"/>
<path d="M0 0 C0.99 1.32 1.98 2.64 3 4 C3.33 3.34 3.66 2.68 4 2 C4.66 2.33 5.32 2.66 6 3 C5.77860352 3.50748779 5.55720703 4.01497559 5.32910156 4.5378418 C0.9776916 14.55944232 -3.11877151 24.44181402 -6 35 C-6.33 35 -6.66 35 -7 35 C-6.26209611 27.52755549 -4.60192502 20.31420182 -2.9375 13 C-2.51500977 11.12248047 -2.51500977 11.12248047 -2.08398438 9.20703125 C-1.39269604 6.13724235 -0.69794475 3.06828108 0 0 Z " fill="#E38125" transform="translate(165,279)"/>
<path d="M0 0 C0 3.69840628 -0.82866944 4.31415433 -3.25 7 C-3.85328125 7.680625 -4.4565625 8.36125 -5.078125 9.0625 C-6.95118245 10.95078556 -8.78201083 12.53356088 -11 14 C-11.66 14 -12.32 14 -13 14 C-13.33 15.32 -13.66 16.64 -14 18 C-15.7015625 18.2165625 -15.7015625 18.2165625 -17.4375 18.4375 C-20.80777201 18.61171478 -20.80777201 18.61171478 -22 20 C-30.2084084 20.82489771 -36.6400638 19.64740201 -44 16 C-44 15.34 -44 14.68 -44 14 C-44.66 14 -45.32 14 -46 14 C-46 13.34 -46 12.68 -46 12 C-43.96947067 13.01526467 -41.94015108 14.03082445 -39.921875 15.0703125 C-33.8904701 17.99923215 -28.91651135 19.26797795 -22.41796875 17.1640625 C-18.50604394 15.64053102 -14.74005544 13.90434016 -11 12 C-11 11.34 -11 10.68 -11 10 C-10.34 10 -9.68 10 -9 10 C-9 9.34 -9 8.68 -9 8 C-7.28515625 6.30859375 -7.28515625 6.30859375 -5.0625 4.4375 C-4.33160156 3.81746094 -3.60070312 3.19742187 -2.84765625 2.55859375 C-2.23792969 2.04425781 -1.62820313 1.52992188 -1 1 C-0.67 0.67 -0.34 0.34 0 0 Z " fill="#C78A2D" transform="translate(335,263)"/>
<path d="M0 0 C0.99 0.33 1.98 0.66 3 1 C3.62475782 12.17622319 1.7443641 22.99566055 0 34 C-0.33 34 -0.66 34 -1 34 C-1.05850924 30.31256766 -1.09376673 26.6252563 -1.125 22.9375 C-1.14175781 21.89916016 -1.15851563 20.86082031 -1.17578125 19.79101562 C-1.21183286 14.11288716 -0.92971166 9.35608946 1 4 C0.01 4 -0.98 4 -2 4 C-1.34 2.68 -0.68 1.36 0 0 Z " fill="#E98628" transform="translate(180,269)"/>
<path d="M0 0 C0 0.33 0 0.66 0 1 C-1.43666016 1.21148682 -1.43666016 1.21148682 -2.90234375 1.42724609 C-6.48872104 1.95627088 -10.07429802 2.49056153 -13.65966797 3.02636719 C-15.20535617 3.2566241 -16.75125195 3.48549232 -18.29736328 3.71289062 C-20.53214936 4.04183267 -22.76611703 4.37592369 -25 4.7109375 C-25.68054443 4.80998383 -26.36108887 4.90903015 -27.06225586 5.01107788 C-30.51493339 5.53389957 -33.87591947 6.19465588 -37.25 7.08056641 C-41 8 -41 8 -45 8 C-45 7.34 -45 6.68 -45 6 C-40.02501719 4.81108299 -35.04626679 3.64092893 -30.06298828 2.48730469 C-28.46257315 2.1092658 -26.86845267 1.7045314 -25.27734375 1.2890625 C-17.01034457 -0.72301138 -8.44798268 -0.16564672 0 0 Z " fill="#D4A92B" transform="translate(186,160)"/>
<path d="M0 0 C2.31 0.33 4.62 0.66 7 1 C6.34 1.66 5.68 2.32 5 3 C4.01 3 3.02 3 2 3 C2 4.32 2 5.64 2 7 C2.99 7 3.98 7 5 7 C5 7.66 5 8.32 5 9 C4.39671875 9.13277344 3.7934375 9.26554687 3.171875 9.40234375 C2.37265625 9.57894531 1.5734375 9.75554687 0.75 9.9375 C-0.03890625 10.11152344 -0.8278125 10.28554687 -1.640625 10.46484375 C-3.14178517 10.80533869 -4.63425131 11.18910085 -6.109375 11.62890625 C-8 12 -8 12 -11 11 C-10.6875 9.125 -10.6875 9.125 -10 7 C-9.01 6.34 -8.02 5.68 -7 5 C-7 5.66 -7 6.32 -7 7 C-5.68 7 -4.36 7 -3 7 C-2.87625 6.401875 -2.7525 5.80375 -2.625 5.1875 C-2 3 -2 3 0 0 Z " fill="#F3A81F" transform="translate(193,106)"/>
<path d="M0 0 C0.66 0 1.32 0 2 0 C4.60018816 3.90028225 4.15085514 7.47434569 4 12 C3.360625 12.268125 2.72125 12.53625 2.0625 12.8125 C-0.33131686 13.88667752 -0.33131686 13.88667752 -1 17 C-1.99 17 -2.98 17 -4 17 C-4 17.66 -4 18.32 -4 19 C-4.66 18.67 -5.32 18.34 -6 18 C-4 12 -2 6 0 0 Z " fill="#223611" transform="translate(267,209)"/>
<path d="M0 0 C2.97 1.65 5.94 3.3 9 5 C9 9.00800915 8.84140963 9.74581508 6.8125 12.890625 C6.36132812 13.59960938 5.91015625 14.30859375 5.4453125 15.0390625 C4.96835937 15.76867187 4.49140625 16.49828125 4 17.25 C3.28457031 18.36761719 3.28457031 18.36761719 2.5546875 19.5078125 C1.37772931 21.34386728 0.1927029 23.1741495 -1 25 C-2.22660322 21.32019033 -1.28114942 20.22279649 0.296875 16.8515625 C1.30167504 14.20558905 1.20428053 11.79183397 1 9 C0.34 9 -0.32 9 -1 9 C-1 8.34 -1 7.68 -1 7 C0.98 7.495 0.98 7.495 3 8 C3 8.66 3 9.32 3 10 C3.99 10 4.98 10 6 10 C6 8.35 6 6.7 6 5 C5.195625 4.731875 4.39125 4.46375 3.5625 4.1875 C2.716875 3.795625 1.87125 3.40375 1 3 C0.67 2.01 0.34 1.02 0 0 Z " fill="#F0A324" transform="translate(274,134)"/>
<path d="M0 0 C0.66 0 1.32 0 2 0 C1.67 2.31 1.34 4.62 1 7 C1.66 7 2.32 7 3 7 C3.66 5.68 4.32 4.36 5 3 C5.66 3 6.32 3 7 3 C7 5.64 7 8.28 7 11 C9.57939515 8.49225471 11.9764106 6.03032923 14.1875 3.1875 C14.785625 2.465625 15.38375 1.74375 16 1 C16.66 1 17.32 1 18 1 C16.5407024 5.51055622 14.30806487 8.61500339 11 12 C8.1875 12.875 8.1875 12.875 6 13 C5.34 11.35 4.68 9.7 4 8 C3.34 8.66 2.68 9.32 2 10 C1.01 10 0.02 10 -1 10 C-1.02689216 8.52093108 -1.04634621 7.04172517 -1.0625 5.5625 C-1.07410156 4.73878906 -1.08570313 3.91507812 -1.09765625 3.06640625 C-1 1 -1 1 0 0 Z " fill="#AB4802" transform="translate(255,289)"/>
<path d="M0 0 C1.32 0.99 2.64 1.98 4 3 C4 3.66 4 4.32 4 5 C5.32 5.33 6.64 5.66 8 6 C8.33 7.32 8.66 8.64 9 10 C9.66 10 10.32 10 11 10 C11.33 9.01 11.66 8.02 12 7 C13.98 9.64 15.96 12.28 18 15 C17.01 15.33 16.02 15.66 15 16 C13.31295807 14.69254251 11.64639965 13.35827971 10 12 C9.01 12 8.02 12 7 12 C5.68 11.67 4.36 11.34 3 11 C2.01 7.37 1.02 3.74 0 0 Z " fill="#DBDDC5" transform="translate(108,218)"/>
<path d="M0 0 C0.99 0.33 1.98 0.66 3 1 C3.33 3.97 3.66 6.94 4 10 C0.7 10.66 -2.6 11.32 -6 12 C-6.33 9.69 -6.66 7.38 -7 5 C-6.01 5 -5.02 5 -4 5 C-3.67 4.01 -3.34 3.02 -3 2 C-2.01 1.34 -1.02 0.68 0 0 Z " fill="#E1A922" transform="translate(137,159)"/>
<path d="M0 0 C2.28534387 1.62185694 3.59529304 2.9025135 4.9375 5.375 C4.875 8 4.875 8 3.9375 10.375 C1.87890625 11.5234375 1.87890625 11.5234375 -0.0625 12.375 C-1.0680761 10.92050599 -2.06680435 9.46127557 -3.0625 8 C-3.619375 7.18789062 -4.17625 6.37578125 -4.75 5.5390625 C-6.0625 3.375 -6.0625 3.375 -6.0625 1.375 C-2.66661899 -0.80806636 -2.66661899 -0.80806636 0 0 Z " fill="#2B3B1A" transform="translate(85.0625,224.625)"/>
<path d="M0 0 C1.9550735 0.01005846 3.91015205 0.0191792 5.86523438 0.02734375 C10.59778397 0.04911037 15.33008419 0.08347918 20.0625 0.125 C20.0625 0.455 20.0625 0.785 20.0625 1.125 C19.04414063 1.13958252 18.02578125 1.15416504 16.9765625 1.16918945 C13.16681328 1.22754429 9.35763234 1.30477178 5.54833984 1.38745117 C3.90553063 1.42052678 2.26261253 1.44861177 0.61962891 1.47143555 C-1.754049 1.50530405 -4.12674441 1.55763075 -6.5 1.61328125 C-7.22429199 1.61967117 -7.94858398 1.6260611 -8.69482422 1.63264465 C-13.99281443 1.78243176 -18.054124 3.06062009 -22.9375 5.125 C-22.9375 4.465 -22.9375 3.805 -22.9375 3.125 C-27.5575 3.125 -32.1775 3.125 -36.9375 3.125 C-36.9375 2.795 -36.9375 2.465 -36.9375 2.125 C-24.58800151 -0.00592212 -12.50187913 -0.11306196 0 0 Z " fill="#464404" transform="translate(201.9375,160.875)"/>
<path d="M0 0 C0.66 0.33 1.32 0.66 2 1 C-2.84622894 5.94719204 -7.74427552 10.72970716 -13.01171875 15.2265625 C-15.93756551 17.83625686 -18.63284472 20.65838479 -21.3359375 23.49609375 C-23 25 -23 25 -25 25 C-25 24.01 -25 23.02 -25 22 C-24.34 22 -23.68 22 -23 22 C-22.67 20.68 -22.34 19.36 -22 18 C-21.34 18.33 -20.68 18.66 -20 19 C-19.67 18.01 -19.34 17.02 -19 16 C-16.34128865 12.96147274 -13.5700554 10.87897652 -10 9 C-9.34 9 -8.68 9 -8 9 C-8 7.68 -8 6.36 -8 5 C-8.66 4.67 -9.32 4.34 -10 4 C-7.03 4.495 -7.03 4.495 -4 5 C-4 4.34 -4 3.68 -4 3 C-3.34 3 -2.68 3 -2 3 C-2 2.34 -2 1.68 -2 1 C-1.34 0.67 -0.68 0.34 0 0 Z " fill="#333A07" transform="translate(351,246)"/>
<path d="M0 0 C3.81240932 0.51519045 5.3794118 1.26029415 8 4 C8.99 4 9.98 4 11 4 C14.2416847 10.0179386 14.13652353 14.26388533 13.1875 20.9375 C13.07857422 21.81212891 12.96964844 22.68675781 12.85742188 23.58789062 C12.5885152 25.72745241 12.29659347 27.86410025 12 30 C11.01 30.33 10.02 30.66 9 31 C9.15855469 30.46890625 9.31710937 29.9378125 9.48046875 29.390625 C11.05668579 22.13765635 11.11274337 14.15810292 7.2890625 7.65234375 C5.18184646 4.95127592 2.73556732 3.05167549 0 1 C0 0.67 0 0.34 0 0 Z " fill="#D78D28" transform="translate(346,212)"/>
<path d="M0 0 C2.04040776 2.04040776 3 3.08325244 3 6 C1 5 -1 4 -3 3 C-5.09821215 3.39938767 -5.09821215 3.39938767 -7 4 C-5.37418243 8.96309296 -5.37418243 8.96309296 -1.8125 12.4375 C-1.214375 12.623125 -0.61625 12.80875 0 13 C0 13.99 0 14.98 0 16 C-6.53631285 13.6396648 -6.53631285 13.6396648 -9 11 C-9.64190733 8.29863997 -9.81704846 5.79001105 -10 3 C-6.7217397 -0.02608643 -4.42815603 -0.6595126 0 0 Z " fill="#E7ECD1" transform="translate(134,196)"/>
<path d="M0 0 C0.99 0 1.98 0 3 0 C3.56714438 6.38037431 2.14699399 12.38591812 -1 18 C-3.140625 18.8203125 -3.140625 18.8203125 -5 19 C-4.48378772 12.16018724 -2.51409031 6.36123316 0 0 Z " fill="#E5E5D0" transform="translate(266,200)"/>
<path d="M0 0 C1.32 0.66 2.64 1.32 4 2 C3.25 9.75 3.25 9.75 1 12 C-0.32 12 -1.64 12 -3 12 C-5 9 -5 9 -4.875 6 C-3.88530089 2.60674592 -2.99739756 1.74042439 0 0 Z " fill="#CA5001" transform="translate(148,134)"/>
<path d="M0 0 C3.3 0 6.6 0 10 0 C9.67 0.66 9.34 1.32 9 2 C7.35 2 5.7 2 4 2 C4.09539062 3.26457031 4.19078125 4.52914062 4.2890625 5.83203125 C4.40161285 7.49214887 4.51356068 9.15230742 4.625 10.8125 C4.68945312 11.64587891 4.75390625 12.47925781 4.8203125 13.33789062 C4.871875 14.14033203 4.9234375 14.94277344 4.9765625 15.76953125 C5.02893066 16.50792236 5.08129883 17.24631348 5.13525391 18.00708008 C5 20 5 20 3 23 C2.49187886 20.48056604 1.99335466 17.95983127 1.5 15.4375 C1.35691406 14.73302734 1.21382812 14.02855469 1.06640625 13.30273438 C0.19125075 8.78109762 -0.14523405 4.60512972 0 0 Z " fill="#F7F4DE" transform="translate(172,185)"/>
<path d="M0 0 C2.76223278 2.76223278 2.57856291 5.20706617 3 9 C4.32 7.68 5.64 6.36 7 5 C4.94235079 11.45353615 2.57616518 17.7361263 0 24 C-0.33 24 -0.66 24 -1 24 C-0.99476318 23.43490723 -0.98952637 22.86981445 -0.98413086 22.28759766 C-0.96337578 19.7334097 -0.9503446 17.17923947 -0.9375 14.625 C-0.92493164 13.29082031 -0.92493164 13.29082031 -0.91210938 11.9296875 C-0.90888672 11.07890625 -0.90566406 10.228125 -0.90234375 9.3515625 C-0.89448853 8.17327881 -0.89448853 8.17327881 -0.88647461 6.97119141 C-0.87426047 4.92227332 -0.87426047 4.92227332 -2 3 C-2.99 2.34 -3.98 1.68 -5 1 C-2.625 0.375 -2.625 0.375 0 0 Z " fill="#E58423" transform="translate(185,265)"/>
<path d="M0 0 C1.2065625 0.0309375 1.2065625 0.0309375 2.4375 0.0625 C2.7675 1.7125 3.0975 3.3625 3.4375 5.0625 C4.0975 5.0625 4.7575 5.0625 5.4375 5.0625 C5.7675 4.0725 6.0975 3.0825 6.4375 2.0625 C6.7675 3.0525 7.0975 4.0425 7.4375 5.0625 C6.4475 6.5475 6.4475 6.5475 5.4375 8.0625 C2.3125 8.25 2.3125 8.25 -0.5625 8.0625 C-0.5625 8.7225 -0.5625 9.3825 -0.5625 10.0625 C0.0975 10.0625 0.7575 10.0625 1.4375 10.0625 C1.7675 11.0525 2.0975 12.0425 2.4375 13.0625 C1.4475 13.5575 1.4475 13.5575 0.4375 14.0625 C-3.0683565 9.57062136 -4.12163813 6.76570894 -3.5625 1.0625 C-2.5625 0.0625 -2.5625 0.0625 0 0 Z " fill="#384420" transform="translate(219.5625,186.9375)"/>
<path d="M0 0 C0.721875 0.268125 1.44375 0.53625 2.1875 0.8125 C2.8475 3.4525 3.5075 6.0925 4.1875 8.8125 C2.2075 9.8025 2.2075 9.8025 0.1875 10.8125 C0.1875 10.4825 0.1875 10.1525 0.1875 9.8125 C-2.1225 9.4825 -4.4325 9.1525 -6.8125 8.8125 C-7.625 7.125 -7.625 7.125 -7.8125 4.8125 C-3.97611072 -0.26507405 -3.97611072 -0.26507405 0 0 Z " fill="#455030" transform="translate(180.8125,176.1875)"/>
<path d="M0 0 C0 0.66 0 1.32 0 2 C-3.76142474 4.2039911 -7.53552129 6.3852886 -11.3125 8.5625 C-12.38435547 9.19091797 -13.45621094 9.81933594 -14.56054688 10.46679688 C-16.10258789 11.35141602 -16.10258789 11.35141602 -17.67578125 12.25390625 C-18.62364502 12.80377197 -19.57150879 13.3536377 -20.5480957 13.92016602 C-23 15 -23 15 -26 14 C-25.01 13.67 -24.02 13.34 -23 13 C-23.33 12.01 -23.66 11.02 -24 10 C-23.20335938 9.67386719 -22.40671875 9.34773438 -21.5859375 9.01171875 C-15.50071481 6.50211961 -9.57312519 3.88581607 -3.75 0.8125 C-2 0 -2 0 0 0 Z " fill="#EF8523" transform="translate(141,118)"/>
<path d="M0 0 C14.36067091 2.31289652 27.27141223 7.09871882 40 14 C36.26221645 15.24592785 35.0089867 14.54425229 31.375 13.1875 C30.39273437 12.83042969 29.41046875 12.47335937 28.3984375 12.10546875 C26 11 26 11 25 9 C20.7331369 7.27293636 16.55639859 6.54676783 12 6 C12 5.67 12 5.34 12 5 C11.38511719 4.89042969 10.77023438 4.78085938 10.13671875 4.66796875 C9.32847656 4.50941406 8.52023438 4.35085937 7.6875 4.1875 C6.88699219 4.03667969 6.08648437 3.88585937 5.26171875 3.73046875 C2.76554413 2.92427764 1.67577894 1.97947998 0 0 Z " fill="#C88A2E" transform="translate(231,248)"/>
<path d="M0 0 C-0.42954941 6.25107435 -1.01401507 12.04204521 -3 18 C-3.66 18 -4.32 18 -5 18 C-6.125 12.25 -6.125 12.25 -5 10 C-5.66 10 -6.32 10 -7 10 C-6.67506385 6.4257023 -6.36129314 4.44287547 -4.0625 1.625 C-2 0 -2 0 0 0 Z " fill="#EFEBD7" transform="translate(292,204)"/>
<path d="M0 0 C0.99 0.33 1.98 0.66 3 1 C3 2.98 3 4.96 3 7 C4.98 6.01 6.96 5.02 9 4 C9.33 5.98 9.66 7.96 10 10 C3 10 3 10 1.3125 8.5 C0.879375 8.005 0.44625 7.51 0 7 C-3.0745356 7.7763932 -3.0745356 7.7763932 -5 10 C-7.125 9.625 -7.125 9.625 -9 9 C-9 8.01 -9 7.02 -9 6 C-8.071875 5.938125 -7.14375 5.87625 -6.1875 5.8125 C-2.8109337 5.31172896 -2.8109337 5.31172896 -1.125 2.4375 C-0.75375 1.633125 -0.3825 0.82875 0 0 Z " fill="#E98722" transform="translate(251,292)"/>
<path d="M0 0 C1.175625 0.9590625 1.175625 0.9590625 2.375 1.9375 C4.79539281 3.98142313 4.79539281 3.98142313 7 5 C6.34 6.32 5.68 7.64 5 9 C3.35 8.67 1.7 8.34 0 8 C0.33 7.01 0.66 6.02 1 5 C0.34 5 -0.32 5 -1 5 C-1 7.31 -1 9.62 -1 12 C-3.875 12.125 -3.875 12.125 -7 12 C-7.66 11.34 -8.32 10.68 -9 10 C-8.34 9.01 -7.68 8.02 -7 7 C-6.67 7.99 -6.34 8.98 -6 10 C-5.34 10.33 -4.68 10.66 -4 11 C-4.33 8.36 -4.66 5.72 -5 3 C-3.35 2.01 -1.7 1.02 0 0 Z " fill="#2D3E1A" transform="translate(118,229)"/>
<path d="M0 0 C0.33 0.66 0.66 1.32 1 2 C1.66 2.33 2.32 2.66 3 3 C1.02 3.66 -0.96 4.32 -3 5 C-2.566875 5.62648437 -2.13375 6.25296875 -1.6875 6.8984375 C-0.8521875 8.12433594 -0.8521875 8.12433594 0 9.375 C0.8353125 10.59316406 0.8353125 10.59316406 1.6875 11.8359375 C3 14 3 14 3 16 C3.99 15.67 4.98 15.34 6 15 C6 15.66 6 16.32 6 17 C4.35 17.33 2.7 17.66 1 18 C-0.15037471 16.3990869 -1.29514816 14.79414775 -2.4375 13.1875 C-3.07558594 12.29417969 -3.71367188 11.40085938 -4.37109375 10.48046875 C-6 8 -6 8 -7 5 C-4.87219421 2.65941363 -2.88437779 1.29299694 0 0 Z " fill="#E5E6CC" transform="translate(82,221)"/>
<path d="M0 0 C2.31 0 4.62 0 7 0 C6.67 0.99 6.34 1.98 6 3 C4.68 3 3.36 3 2 3 C2.33 12.9 2.66 22.8 3 33 C-1.82469487 23.35061026 -0.11324346 10.61972033 0 0 Z " fill="#F6A526" transform="translate(171,94)"/>
<path d="M0 0 C0 0.66 0 1.32 0 2 C0.99 2.33 1.98 2.66 3 3 C2.67 3.66 2.34 4.32 2 5 C2.66 5.33 3.32 5.66 4 6 C2.71937515 7.7074998 1.38232443 9.37373596 0 11 C-0.66 11 -1.32 11 -2 11 C-2 8.36 -2 5.72 -2 3 C-2.928125 3.99 -2.928125 3.99 -3.875 5 C-6 7 -6 7 -8 7 C-8.1875 4.625 -8.1875 4.625 -8 2 C-4.77208445 -0.1519437 -3.71599191 -0.20086443 0 0 Z " fill="#EC8A2B" transform="translate(264,289)"/>
<path d="M0 0 C0.99 0 1.98 0 3 0 C5 3 5 3 5 6 C6.65 6.33 8.3 6.66 10 7 C9.67 7.66 9.34 8.32 9 9 C8.34 9 7.68 9 7 9 C7.33 11.64 7.66 14.28 8 17 C7.01 16.67 6.02 16.34 5 16 C3.95590957 13.67359006 3.10309582 11.47250358 2.3125 9.0625 C2.08755859 8.41603516 1.86261719 7.76957031 1.63085938 7.10351562 C0 2.32990597 0 2.32990597 0 0 Z " fill="#E0E4CA" transform="translate(106,223)"/>
<path d="M0 0 C6.24675325 3.54545455 6.24675325 3.54545455 8 6 C8.6875 9.6875 8.6875 9.6875 9 13 C7.35 13.33 5.7 13.66 4 14 C3.67 13.34 3.34 12.68 3 12 C2.01 11.34 1.02 10.68 0 10 C1.32 8.68 2.64 7.36 4 6 C3.01 5.67 2.02 5.34 1 5 C0.67 3.35 0.34 1.7 0 0 Z " fill="#2A3715" transform="translate(132,212)"/>
<path d="M0 0 C0 0.66 0 1.32 0 2 C-4.85722203 5.01935424 -9.02265407 5.43825585 -14.70703125 5.69140625 C-15.46371094 5.79324219 -16.22039062 5.89507812 -17 6 C-17.33 6.66 -17.66 7.32 -18 8 C-21.21451269 9.60725635 -24.43612536 9.05748185 -28 9 C-24.5766053 6.71773687 -21.14414826 5.67250814 -17.25 4.5 C-16.5590625 4.28730469 -15.868125 4.07460937 -15.15625 3.85546875 C-13.10686695 3.22755627 -11.05437922 2.6113515 -9 2 C-8.33806641 1.80148438 -7.67613281 1.60296875 -6.99414062 1.3984375 C-2.24240757 0 -2.24240757 0 0 0 Z " fill="#453D08" transform="translate(147,167)"/>
<path d="M0 0 C0.99 0.33 1.98 0.66 3 1 C3 1.66 3 2.32 3 3 C3.61875 3.556875 4.2375 4.11375 4.875 4.6875 C7.60173857 7.65483315 8.04034795 10.09741501 9 14 C9.52817329 15.65021305 10.07011599 17.29607566 10.625 18.9375 C10.88539062 19.70964844 11.14578125 20.48179687 11.4140625 21.27734375 C11.60742188 21.84582031 11.80078125 22.41429687 12 23 C8.4240864 19.65554553 6.2235406 15.68545429 3.75 11.5 C3.27820313 10.72785156 2.80640625 9.95570313 2.3203125 9.16015625 C1.87945312 8.41636719 1.43859375 7.67257813 0.984375 6.90625 C0.57928711 6.22884766 0.17419922 5.55144531 -0.24316406 4.85351562 C-1 3 -1 3 0 0 Z " fill="#F09F28" transform="translate(114,137)"/>
<path d="M0 0 C1.16045027 3.91651967 1.03629578 7.51187292 0.9375 11.5625 C0.99685074 13.87717903 1.34466777 15.78825372 2 18 C2.66 18 3.32 18 4 18 C5.18359375 19.64453125 5.18359375 19.64453125 6.4375 21.8125 C7.72241258 24.02383858 8.83498239 25.83731205 10.66015625 27.63671875 C12 29 12 29 12 31 C12.66 31 13.32 31 14 31 C13.67 31.66 13.34 32.32 13 33 C7.17994898 28.56567541 1.65802949 22.9603284 -1 16 C-1.23046875 12.6171875 -1.23046875 12.6171875 -1.1875 8.875 C-1.18105469 7.63492188 -1.17460938 6.39484375 -1.16796875 5.1171875 C-1 2 -1 2 0 0 Z " fill="#453803" transform="translate(47,223)"/>
<path d="M0 0 C4.34403075 2.93515591 6.85672586 5.87742285 8 11 C8.62634328 17.88119603 9.01185984 24.14937106 5 30 C4.375 28.25 4.375 28.25 4 26 C4.32355469 25.39027344 4.64710938 24.78054687 4.98046875 24.15234375 C6.85437707 20.19631507 5.97164487 16.15378182 5 12 C3.83632917 9.50423229 2.54320465 7.22749508 1.05859375 4.91015625 C0 3 0 3 0 0 Z " fill="#463903" transform="translate(349,215)"/>
<path d="M0 0 C0.66 0.33 1.32 0.66 2 1 C0.68 1.33 -0.64 1.66 -2 2 C-0.68 3.65 0.64 5.3 2 7 C1.67 7.66 1.34 8.32 1 9 C1.99 9.33 2.98 9.66 4 10 C5.1875 12.0625 5.1875 12.0625 6 14 C3.36 14 0.72 14 -2 14 C-3.32229189 11.35541621 -3.09677194 9.32238699 -3.0625 6.375 C-3.05347656 5.37210938 -3.04445312 4.36921875 -3.03515625 3.3359375 C-3.02355469 2.56507813 -3.01195312 1.79421875 -3 1 C-2.01 0.67 -1.02 0.34 0 0 Z " fill="#2F401D" transform="translate(181,201)"/>
<path d="M0 0 C0.66 0 1.32 0 2 0 C1.55005243 1.79379098 1.08975857 3.58498928 0.625 5.375 C0.36976563 6.37273437 0.11453125 7.37046875 -0.1484375 8.3984375 C-1 11 -1 11 -3 13 C-6.625 12.625 -6.625 12.625 -10 12 C-9.67 10.35 -9.34 8.7 -9 7 C-8.67 7.66 -8.34 8.32 -8 9 C-6.35 8.67 -4.7 8.34 -3 8 C-3 6.35 -3 4.7 -3 3 C-2.34 3 -1.68 3 -1 3 C-0.67 2.01 -0.34 1.02 0 0 Z " fill="#303D1C" transform="translate(261,209)"/>
<path d="M0 0 C2.4375 0.6875 2.4375 0.6875 5 2 C6.26758969 5.12672123 6.13066316 6.60801052 5.0625 9.8125 C4.711875 10.534375 4.36125 11.25625 4 12 C3.34 11.67 2.68 11.34 2 11 C2.33 9.68 2.66 8.36 3 7 C2.071875 7.4640625 2.071875 7.4640625 1.125 7.9375 C-0.25 8.625 -1.625 9.3125 -3 10 C-2.69201674 8.51988629 -2.378482 7.04092675 -2.0625 5.5625 C-1.88847656 4.73878906 -1.71445312 3.91507813 -1.53515625 3.06640625 C-1 1 -1 1 0 0 Z " fill="#344023" transform="translate(260,195)"/>
<path d="M0 0 C2 3 2 3 2 5 C1.34 5 0.68 5 0 5 C-0.41746608 7.87364791 -0.41746608 7.87364791 0 11 C2.39056942 12.9354148 2.39056942 12.9354148 5 14 C3 15 3 15 0.6171875 14.22265625 C-0.74019531 13.64837891 -0.74019531 13.64837891 -2.125 13.0625 C-3.03507812 12.68222656 -3.94515625 12.30195313 -4.8828125 11.91015625 C-5.58148438 11.60980469 -6.28015625 11.30945313 -7 11 C-6.67 9.68 -6.34 8.36 -6 7 C-4.68 6.67 -3.36 6.34 -2 6 C-1.855625 5.195625 -1.71125 4.39125 -1.5625 3.5625 C-1 1 -1 1 0 0 Z " fill="#DF8922" transform="translate(276,160)"/>
<path d="M0 0 C1.4540625 0.0309375 1.4540625 0.0309375 2.9375 0.0625 C3.2675 1.7125 3.5975 3.3625 3.9375 5.0625 C1.36536866 6.68199011 0.26080841 7.10658751 -2.8125 6.6875 C-3.555 6.48125 -4.2975 6.275 -5.0625 6.0625 C-3.98897059 0.08140756 -3.98897059 0.08140756 0 0 Z " fill="#C85001" transform="translate(238.0625,127.9375)"/>
<path d="M0 0 C5.28 0 10.56 0 16 0 C16 1.98 16 3.96 16 6 C15.67 6 15.34 6 15 6 C14.67 9.63 14.34 13.26 14 17 C13.67 17 13.34 17 13 17 C13 12.38 13 7.76 13 3 C10.36 3 7.72 3 5 3 C5 2.67 5 2.34 5 2 C3.35 1.67 1.7 1.34 0 1 C0 0.67 0 0.34 0 0 Z " fill="#BE5907" transform="translate(212,89)"/>
<path d="M0 0 C3.28834617 2.79042625 5.12735689 6.47328176 7.1875 10.1875 C7.55552734 10.84169922 7.92355469 11.49589844 8.30273438 12.16992188 C9.2062466 13.77746961 10.1037241 15.38840651 11 17 C10.34 17.66 9.68 18.32 9 19 C8.67 18.01 8.34 17.02 8 16 C7.34 16 6.68 16 6 16 C5.67 14.35 5.34 12.7 5 11 C4.01 11 3.02 11 2 11 C2 9.02 2 7.04 2 5 C1.34 5 0.68 5 0 5 C0 3.35 0 1.7 0 0 Z " fill="#EC8225" transform="translate(113,145)"/>
<path d="M0 0 C0.99 0.33 1.98 0.66 3 1 C2.34 2.03125 1.68 3.0625 1 4.125 C-1.99553142 10.1374595 -1.79075494 16.44585813 -1 23 C0.03682049 26.06577093 1.24199249 28.25311327 3 31 C2.01 31 1.02 31 0 31 C-3.77371252 26.65934476 -3.45083029 22.0679295 -3.375 16.625 C-3.38660156 15.8 -3.39820313 14.975 -3.41015625 14.125 C-3.38418979 8.67204298 -2.4767225 4.86171453 0 0 Z " fill="#C0882C" transform="translate(48,216)"/>
<path d="M0 0 C1.32 1.32 2.64 2.64 4 4 C3.34 4.66 2.68 5.32 2 6 C2.66 6.33 3.32 6.66 4 7 C3.01 8.32 2.02 9.64 1 11 C-1.5 8.75 -1.5 8.75 -4 6 C-4 4.68 -4 3.36 -4 2 C-2.68 1.34 -1.36 0.68 0 0 Z " fill="#3A4627" transform="translate(131,198)"/>
<path d="M0 0 C2.09749995 2.35968744 2.96905704 3.54616994 3.1875 6.75 C3.125625 7.4925 3.06375 8.235 3 9 C2.34 9 1.68 9 1 9 C0.34 10.32 -0.32 11.64 -1 13 C-2.98 12.34 -4.96 11.68 -7 11 C-6.67 10.01 -6.34 9.02 -6 8 C-4.02 7.67 -2.04 7.34 0 7 C0 5.68 0 4.36 0 3 C-0.99 2.67 -1.98 2.34 -3 2 C-2.01 1.34 -1.02 0.68 0 0 Z " fill="#F3A720" transform="translate(196,146)"/>
<path d="M0 0 C0.66 0.33 1.32 0.66 2 1 C1.85904936 2.6254308 1.71207913 4.25034051 1.5625 5.875 C1.48128906 6.77992188 1.40007812 7.68484375 1.31640625 8.6171875 C1 11 1 11 0 13 C-0.66 13 -1.32 13 -2 13 C-2.66 14.65 -3.32 16.3 -4 18 C-4.66 17.34 -5.32 16.68 -6 16 C-4.02 10.72 -2.04 5.44 0 0 Z " fill="#E78525" transform="translate(168,291)"/>
<path d="M0 0 C0.66 0.66 1.32 1.32 2 2 C2.66 1.67 3.32 1.34 4 1 C2.83348574 6.92863717 1.24480642 12.38798394 -1 18 C-1.66 18 -2.32 18 -3 18 C-2.01 12.06 -1.02 6.12 0 0 Z " fill="#A13D01" transform="translate(182,288)"/>
<path d="M0 0 C4.03520597 1.58962659 8.01811282 3.28232318 12 5 C12 4.34 12 3.68 12 3 C13.32 3 14.64 3 16 3 C15.67 3.99 15.34 4.98 15 6 C14.34 6 13.68 6 13 6 C14.32 7.32 15.64 8.64 17 10 C16.67 10.99 16.34 11.98 16 13 C15.01 12.34 14.02 11.68 13 11 C13 10.34 13 9.68 13 9 C12.34 8.79375 11.68 8.5875 11 8.375 C6.90698622 6.49903535 3.42505088 3.91511774 0 1 C0 0.67 0 0.34 0 0 Z " fill="#D18B2C" transform="translate(329,199)"/>
<path d="M0 0 C0.66 0.33 1.32 0.66 2 1 C0.41920366 4.33723673 -0.36837964 5.75284421 -3.875 7.125 C-5.421875 7.558125 -5.421875 7.558125 -7 8 C-7.886875 8.53625 -8.77375 9.0725 -9.6875 9.625 C-12 11 -12 11 -15 11 C-13.60876681 6.82630044 -10.71569074 5.77753896 -7.0625 3.75 C-6.41603516 3.37359375 -5.76957031 2.9971875 -5.10351562 2.609375 C-3.43996327 1.66963203 -1.72248084 0.8267908 0 0 Z " fill="#EC9D23" transform="translate(135,125)"/>
<path d="M0 0 C1.67542976 0.28604898 3.34385343 0.61781233 5 1 C4.64950425 4.24208567 4.43778819 5.61527704 1.9375 7.8125 C1.298125 8.204375 0.65875 8.59625 0 9 C-0.99 8.01 -1.98 7.02 -3 6 C-1.125 1.125 -1.125 1.125 0 0 Z " fill="#C25200" transform="translate(180,107)"/>
<path d="M0 0 C0.4125 0.39832031 0.825 0.79664063 1.25 1.20703125 C9.65281201 8.91586102 16.76366116 9.46247126 28 9 C28 9.66 28 10.32 28 11 C12.25512528 11.55353075 12.25512528 11.55353075 5 8 C5 7.34 5 6.68 5 6 C4.01 6 3.02 6 2 6 C1.34 4.02 0.68 2.04 0 0 Z " fill="#C4872D" transform="translate(76,271)"/>
<path d="M0 0 C3.10190545 4.65285818 4.33846504 9.41532676 4 15 C3.01 14.67 2.02 14.34 1 14 C-0.01953125 11.85546875 -0.01953125 11.85546875 -0.8125 9.1875 C-1.08707031 8.31480469 -1.36164063 7.44210938 -1.64453125 6.54296875 C-2.0542179 3.61213349 -1.57169068 2.45183745 0 0 Z " fill="#DEE2CB" transform="translate(158,207)"/>
<path d="M0 0 C3.465 1.98 3.465 1.98 7 4 C4.3333581 5.33332095 2.83319697 4.67102033 0 4 C-0.33 5.98 -0.66 7.96 -1 10 C-2.98 10.66 -4.96 11.32 -7 12 C-5.61735163 9.13132769 -4.07851447 6.43975968 -2.375 3.75 C-1.92898437 3.04359375 -1.48296875 2.3371875 -1.0234375 1.609375 C-0.68570313 1.07828125 -0.34796875 0.5471875 0 0 Z " fill="#F19D2A" transform="translate(238,111)"/>
<path d="M0 0 C4.5559919 2.09329358 7.13919868 4.99487816 10 9 C10 10.32 10 11.64 10 13 C9.34 13 8.68 13 8 13 C7.5978125 12.0409375 7.5978125 12.0409375 7.1875 11.0625 C6.11332248 8.66868314 6.11332248 8.66868314 3 8 C1 5 1 5 1 2 C0.01 1.67 -0.98 1.34 -2 1 C-1.34 0.67 -0.68 0.34 0 0 Z " fill="#EFEFD9" transform="translate(109,215)"/>
<path d="M0 0 C3.86463725 0.41406828 6.12722 2.52621722 9 5 C8.67 5.66 8.34 6.32 8 7 C5.03 6.67 2.06 6.34 -1 6 C-1.042721 4.33388095 -1.04063832 2.66617115 -1 1 C-0.67 0.67 -0.34 0.34 0 0 Z " fill="#293F19" transform="translate(123,207)"/>
<path d="M0 0 C-0.33 0.99 -0.66 1.98 -1 3 C-1.66 3 -2.32 3 -3 3 C-3.33 4.98 -3.66 6.96 -4 9 C-5.32 8.34 -6.64 7.68 -8 7 C-8.33 7.99 -8.66 8.98 -9 10 C-12 5.25 -12 5.25 -12 3 C-11.34 3 -10.68 3 -10 3 C-10 3.66 -10 4.32 -10 5 C-8.68 4.67 -7.36 4.34 -6 4 C-6 3.34 -6 2.68 -6 2 C-3 0 -3 0 0 0 Z " fill="#F3A524" transform="translate(138,157)"/>
<path d="M0 0 C-0.30947671 1.93798521 -0.62268834 3.87537426 -0.9375 5.8125 C-1.11152344 6.89144531 -1.28554687 7.97039062 -1.46484375 9.08203125 C-2 12 -2 12 -3 15 C-4.32 14.67 -5.64 14.34 -7 14 C-6.35550393 10.98782888 -5.34977818 8.48344164 -3.9375 5.75 C-3.57527344 5.04359375 -3.21304688 4.3371875 -2.83984375 3.609375 C-2.56269531 3.07828125 -2.28554687 2.5471875 -2 2 C-2.66 1.67 -3.32 1.34 -4 1 C-2 0 -2 0 0 0 Z " fill="#E7832E" transform="translate(234,287)"/>
<path d="M0 0 C3.94139078 1.66751148 6.7892812 4.22710649 10 7 C9.67 7.99 9.34 8.98 9 10 C8.01 10.33 7.02 10.66 6 11 C5.38125 9.88625 5.38125 9.88625 4.75 8.75 C3.06254382 6.09828315 1.29127911 4.13325986 -1 2 C-0.67 1.34 -0.34 0.68 0 0 Z " fill="#E0E1C8" transform="translate(134,210)"/>
<path d="M0 0 C2.31 0 4.62 0 7 0 C8.125 1.6875 8.125 1.6875 9 4 C8.00449408 7.80102261 7.34152484 8.77231678 4 11 C1.3125 11.125 1.3125 11.125 -1 11 C-1 10.34 -1 9.68 -1 9 C0.65 8.67 2.3 8.34 4 8 C4.33 6.35 4.66 4.7 5 3 C3.68 2.34 2.36 1.68 1 1 C0.67 1.66 0.34 2.32 0 3 C0 2.01 0 1.02 0 0 Z " fill="#F3A022" transform="translate(213,131)"/>
<path d="M0 0 C-2.49600303 0.99052547 -4.99604797 1.96744057 -7.5 2.9375 C-8.19609375 3.21529297 -8.8921875 3.49308594 -9.609375 3.77929688 C-14.44191767 5.63624614 -18.84067888 6.54100634 -24 7 C-20.94772947 3.94772947 -17.16658769 3.15653346 -13.125 1.8125 C-12.30902344 1.52697266 -11.49304688 1.24144531 -10.65234375 0.94726562 C-9.46705078 0.54991211 -9.46705078 0.54991211 -8.2578125 0.14453125 C-7.5373877 -0.09934326 -6.81696289 -0.34321777 -6.07470703 -0.59448242 C-3.72175684 -1.05438478 -2.25623333 -0.74371194 0 0 Z " fill="#C78830" transform="translate(167,250)"/>
<path d="M0 0 C1.32 0.33 2.64 0.66 4 1 C4.625 2.8125 4.625 2.8125 5 5 C4.01 6.485 4.01 6.485 3 8 C1.35 7.67 -0.3 7.34 -2 7 C-1.125 2.25 -1.125 2.25 0 0 Z " fill="#C75401" transform="translate(214,132)"/>
<path d="M0 0 C2.72877914 4.09316871 1.63123015 7.06067973 0.75 11.625 C0.61464844 12.41390625 0.47929687 13.2028125 0.33984375 14.015625 C-0.02978086 16.02610654 -0.50716305 18.01612245 -1 20 C-1.66 20.33 -2.32 20.66 -3 21 C-2.88618103 18.06167355 -2.75943449 15.1248935 -2.625 12.1875 C-2.5940625 11.35412109 -2.563125 10.52074219 -2.53125 9.66210938 C-2.49257812 8.85966797 -2.45390625 8.05722656 -2.4140625 7.23046875 C-2.3826416 6.49207764 -2.3512207 5.75368652 -2.31884766 4.99291992 C-2 3 -2 3 0 0 Z " fill="#E98625" transform="translate(197,297)"/>
<path d="M0 0 C2.475 0.495 2.475 0.495 5 1 C4.01 1.495 4.01 1.495 3 2 C2.34227572 5.02934491 2.34227572 5.02934491 2 8 C2.66 8 3.32 8 4 8 C4 8.66 4 9.32 4 10 C5.32 10.33 6.64 10.66 8 11 C7.67 11.99 7.34 12.98 7 14 C7 13.34 7 12.68 7 12 C5.02 12 3.04 12 1 12 C0.01751476 7.9472484 -0.08159574 4.16138263 0 0 Z " fill="#364622" transform="translate(176,187)"/>
<path d="M0 0 C0.8971875 0.309375 0.8971875 0.309375 1.8125 0.625 C0.06406882 1.75243666 -1.6863094 2.8768542 -3.4375 4 C-4.41203125 4.62648438 -5.3865625 5.25296875 -6.390625 5.8984375 C-8.62271615 7.27634852 -10.81837422 8.50812642 -13.1875 9.625 C-13.1875 7.975 -13.1875 6.325 -13.1875 4.625 C-12.32125 4.439375 -12.32125 4.439375 -11.4375 4.25 C-7.58473907 3.17978863 -3.74197327 -0.64148113 0 0 Z " fill="#2E3909" transform="translate(127.1875,263.375)"/>
<path d="M0 0 C6.625 -0.25 6.625 -0.25 10 2 C10.1875 5.125 10.1875 5.125 10 8 C9.34 8 8.68 8 8 8 C7.67 6.35 7.34 4.7 7 3 C2.34947128 2.73067479 2.34947128 2.73067479 -2 4 C-1.34 2.68 -0.68 1.36 0 0 Z " fill="#EDEDD4" transform="translate(215,184)"/>
<path d="M0 0 C-0.33 0.66 -0.66 1.32 -1 2 C-3.3140622 2.73075648 -5.64828869 3.40138258 -8 4 C-8 3.34 -8 2.68 -8 2 C-12.62 2 -17.24 2 -22 2 C-22 1.67 -22 1.34 -22 1 C-14.66236293 -0.17402193 -7.41834582 -0.09377123 0 0 Z " fill="#333A05" transform="translate(187,162)"/>
<path d="M0 0 C1.32 0 2.64 0 4 0 C4 0.66 4 1.32 4 2 C3.34 2 2.68 2 2 2 C2 2.66 2 3.32 2 4 C-1.87036007 7.08284263 -6.00786149 9.53198701 -11 10 C-11 9.34 -11 8.68 -11 8 C-9.02 7.67 -7.04 7.34 -5 7 C-5 5.68 -5 4.36 -5 3 C-2 2 -2 2 1 3 C0.67 2.01 0.34 1.02 0 0 Z " fill="#383804" transform="translate(322,271)"/>
<path d="M0 0 C2.54173977 -0.02716824 5.08318415 -0.04691969 7.625 -0.0625 C8.33785156 -0.07087891 9.05070313 -0.07925781 9.78515625 -0.08789062 C13.97344438 -0.10710296 17.8728462 0.1732673 22 1 C20.68 2.32 19.36 3.64 18 5 C17.64035156 4.50628906 17.28070313 4.01257813 16.91015625 3.50390625 C14.10778849 1.29754308 11.9422355 1.77694787 8.4375 1.9375 C4.93359375 2.08984375 4.93359375 2.08984375 2 2 C1.34 1.34 0.68 0.68 0 0 Z " fill="#303703" transform="translate(214,162)"/>
<path d="M0 0 C-2.75545698 1.48663983 -5.27010688 2.4150229 -8.328125 3.0703125 C-9.12734375 3.24433594 -9.9265625 3.41835937 -10.75 3.59765625 C-11.575 3.77167969 -12.4 3.94570312 -13.25 4.125 C-14.09046875 4.30675781 -14.9309375 4.48851562 -15.796875 4.67578125 C-17.86355111 5.12199541 -19.93164277 5.56164445 -22 6 C-22 5.01 -22 4.02 -22 3 C-19.64741656 2.49133331 -17.29338596 1.9929375 -14.9375 1.5 C-13.95233398 1.28537109 -13.95233398 1.28537109 -12.94726562 1.06640625 C-8.56860012 0.16047545 -4.49581296 -0.14031146 0 0 Z " fill="#443C05" transform="translate(177,246)"/>
<path d="M0 0 C1.40907283 2.81814566 0.50872691 4.17277204 -0.4375 7.125 C-0.72496094 8.03507813 -1.01242187 8.94515625 -1.30859375 9.8828125 C-1.65083984 10.93082031 -1.65083984 10.93082031 -2 12 C-3.32 11.67 -4.64 11.34 -6 11 C-6 7.39426104 -5.18292538 6.58663434 -3 3.8125 C-2.443125 3.09707031 -1.88625 2.38164062 -1.3125 1.64453125 C-0.879375 1.10183594 -0.44625 0.55914062 0 0 Z " fill="#2F361C" transform="translate(286,214)"/>
<path d="M0 0 C0.99 0 1.98 0 3 0 C3 1.65 3 3.3 3 5 C4.65 5 6.3 5 8 5 C8.33 5.99 8.66 6.98 9 8 C5.6875 8.25 5.6875 8.25 2 8 C0 6.25 0 6.25 -1 4 C-0.6875 1.75 -0.6875 1.75 0 0 Z " fill="#DDDEC4" transform="translate(211,210)"/>
<path d="M0 0 C1.2065625 0.0309375 1.2065625 0.0309375 2.4375 0.0625 C-0.45835905 2.35898357 -3.3797031 4.10597557 -6.6875 5.75 C-7.99074219 6.40548828 -7.99074219 6.40548828 -9.3203125 7.07421875 C-11.5625 8.0625 -11.5625 8.0625 -13.5625 8.0625 C-13.34375 6.16796875 -13.34375 6.16796875 -12.5625 4.0625 C-10.53125 3.05078125 -10.53125 3.05078125 -8.0625 2.375 C-5.13959682 1.54715242 -2.8875275 0.0704275 0 0 Z " fill="#3D3704" transform="translate(142.5625,254.9375)"/>
<path d="M0 0 C2.95514876 2.75134539 5.1524809 5.39733775 7 9 C7 9.99 7 10.98 7 12 C3.20048294 10.50733258 1.1645138 8.44718865 -1 5 C-0.75 2.1875 -0.75 2.1875 0 0 Z " fill="#DFE4C9" transform="translate(89,242)"/>
<path d="M0 0 C2.66666667 2.66666667 5.33333333 5.33333333 8 8 C7.67 8.99 7.34 9.98 7 11 C5.68 11 4.36 11 3 11 C2.01 7.37 1.02 3.74 0 0 Z " fill="#444930" transform="translate(108,218)"/>
<path d="M0 0 C3.01111938 4.51667907 3.10067926 7.6639991 3 13 C2.01 13.495 2.01 13.495 1 14 C0.01 9.71 -0.98 5.42 -2 1 C-1.34 0.67 -0.68 0.34 0 0 Z " fill="#ECECD2" transform="translate(155,196)"/>
<path d="M0 0 C1.46224799 0.42423244 2.91973412 0.86490245 4.375 1.3125 C5.18710937 1.55613281 5.99921875 1.79976562 6.8359375 2.05078125 C9 3 9 3 11 6 C11 6.99 11 7.98 11 9 C8 9 8 9 6.0625 7.25 C5.381875 6.5075 4.70125 5.765 4 5 C3.2575 4.278125 2.515 3.55625 1.75 2.8125 C0 1 0 1 0 0 Z " fill="#DDE1C6" transform="translate(258,191)"/>
<path d="M0 0 C-9.405 3.96 -9.405 3.96 -19 8 C-19 7.34 -19 6.68 -19 6 C-13.87085156 1.7438981 -6.64300084 -2.21433361 0 0 Z " fill="#CF8D31" transform="translate(117,177)"/>
<path d="M0 0 C0.33 0.66 0.66 1.32 1 2 C-1.22323773 5.33485659 -2.5791441 6.00549143 -6.125 7.6875 C-7.49011719 8.34298828 -7.49011719 8.34298828 -8.8828125 9.01171875 C-9.58148438 9.33785156 -10.28015625 9.66398438 -11 10 C-10.81640625 8.203125 -10.81640625 8.203125 -10 6 C-7.71484375 4.296875 -7.71484375 4.296875 -4.9375 2.75 C-3.55884766 1.96882812 -3.55884766 1.96882812 -2.15234375 1.171875 C-1.44207031 0.78515625 -0.73179688 0.3984375 0 0 Z " fill="#3A3802" transform="translate(80,195)"/>
<path d="M0 0 C1.2065625 0.0309375 1.2065625 0.0309375 2.4375 0.0625 C2.25 2.9375 2.25 2.9375 1.4375 6.0625 C-1.125 7.4375 -1.125 7.4375 -3.5625 8.0625 C-3.60491723 5.72955225 -3.60342937 3.39547433 -3.5625 1.0625 C-2.5625 0.0625 -2.5625 0.0625 0 0 Z " fill="#283B19" transform="translate(219.5625,186.9375)"/>
<path d="M0 0 C0.66 0.33 1.32 0.66 2 1 C1.34 2.65 0.68 4.3 0 6 C-3.96 6 -7.92 6 -12 6 C-9.48617788 4.32411859 -7.17052712 3.05969689 -4.4375 1.8125 C-3.65246094 1.44769531 -2.86742188 1.08289063 -2.05859375 0.70703125 C-1.37925781 0.47371094 -0.69992188 0.24039063 0 0 Z " fill="#393908" transform="translate(117,176)"/>
<path d="M0 0 C1.42892578 -0.03867188 1.42892578 -0.03867188 2.88671875 -0.078125 C3.68722656 0.03015625 4.48773438 0.1384375 5.3125 0.25 C5.9725 1.24 6.6325 2.23 7.3125 3.25 C5.06276553 3.304138 2.81265617 3.34285491 0.5625 3.375 C-0.69046875 3.39820312 -1.9434375 3.42140625 -3.234375 3.4453125 C-6.41570492 3.26537302 -8.05271896 2.93998582 -10.6875 1.25 C-7.08847863 0.43710628 -3.68884842 0.06039042 0 0 Z " fill="#BD5303" transform="translate(193.6875,89.75)"/>
<path d="M0 0 C0.99 0.66 1.98 1.32 3 2 C2.21681311 5.91593446 0.60820142 9.36406635 -1 13 C-1.66 13 -2.32 13 -3 13 C-2.69240822 11.02006459 -2.3787932 9.04106401 -2.0625 7.0625 C-1.88847656 5.96035156 -1.71445313 4.85820312 -1.53515625 3.72265625 C-1 1 -1 1 0 0 Z " fill="#A13D00" transform="translate(234,289)"/>
<path d="M0 0 C0.66 0 1.32 0 2 0 C3.1875 1.625 3.1875 1.625 4 4 C2.625 7.25 2.625 7.25 1 10 C-0.32 10 -1.64 10 -3 10 C-2.01 6.7 -1.02 3.4 0 0 Z " fill="#DBDDC2" transform="translate(251,208)"/>
<path d="M0 0 C5.53846154 0.61538462 5.53846154 0.61538462 7.875 2.5625 C8.431875 3.2740625 8.431875 3.2740625 9 4 C6 5 6 5 3.0625 4.9375 C0.01668705 4.99965945 -1.44891601 5.43010216 -4 7 C-4 6.01 -4 5.02 -4 4 C-2.35 3.34 -0.7 2.68 1 2 C0.67 1.34 0.34 0.68 0 0 Z " fill="#374423" transform="translate(128,192)"/>
<path d="M0 0 C4.92468601 2.34985018 9.57586206 4.7925 14 8 C14 8.33 14 8.66 14 9 C12.02 9 10.04 9 8 9 C7.7525 8.38125 7.505 7.7625 7.25 7.125 C5.77472123 4.6170261 4.65125048 4.07707051 2 3 C1.34 2.67 0.68 2.34 0 2 C0 1.34 0 0.68 0 0 Z " fill="#3B3901" transform="translate(321,195)"/>
<path d="M0 0 C2.04040776 2.04040776 3 3.08325244 3 6 C1 5 -1 4 -3 3 C-5.09821215 3.39938767 -5.09821215 3.39938767 -7 4 C-7.33 3.01 -7.66 2.02 -8 1 C-5.17116253 -0.41441874 -3.12623255 -0.31900332 0 0 Z " fill="#E3E7CC" transform="translate(134,196)"/>
<path d="M0 0 C3.3 0 6.6 0 10 0 C9.67 0.66 9.34 1.32 9 2 C7.35 2 5.7 2 4 2 C4 2.99 4 3.98 4 5 C3.01 5 2.02 5 1 5 C0.67 5.66 0.34 6.32 0 7 C0 4.69 0 2.38 0 0 Z " fill="#E1E8CD" transform="translate(172,185)"/>
<path d="M0 0 C0 1.98 0 3.96 0 6 C-2.97 5.505 -2.97 5.505 -6 5 C-6.33 3.68 -6.66 2.36 -7 1 C-3.375 -1.125 -3.375 -1.125 0 0 Z " fill="#D98510" transform="translate(140,160)"/>
<path d="M0 0 C2.00720923 0.28674418 4.00630969 0.63079809 6 1 C8.33257494 1.33859959 10.66574212 1.6732039 13 2 C13 2.33 13 2.66 13 3 C8.71 3 4.42 3 0 3 C0 6.96 0 10.92 0 15 C-0.33 15 -0.66 15 -1 15 C-1.02685412 12.68756208 -1.04632841 10.3750373 -1.0625 8.0625 C-1.07410156 6.77472656 -1.08570313 5.48695312 -1.09765625 4.16015625 C-1 1 -1 1 0 0 Z " fill="#EF8528" transform="translate(168,88)"/>
<path d="M0 0 C2.00720923 0.28674418 4.0085944 0.61866701 6 1 C6 3.31 6 5.62 6 8 C6.66 8.33 7.32 8.66 8 9 C7.01 9.33 6.02 9.66 5 10 C5 7.36 5 4.72 5 2 C4.071875 2.99 4.071875 2.99 3.125 4 C1 6 1 6 -1 6 C-1.042721 4.33388095 -1.04063832 2.66617115 -1 1 C-0.67 0.67 -0.34 0.34 0 0 Z " fill="#E07D24" transform="translate(257,290)"/>
<path d="M0 0 C3.67230705 3.07999946 4.56802365 5.2482602 5 10 C4.01 10.33 3.02 10.66 2 11 C-0.67927341 6.98108988 -0.15601248 4.75838077 0 0 Z " fill="#F1A227" transform="translate(170,130)"/>
<path d="M0 0 C1.1446875 0.3403125 1.1446875 0.3403125 2.3125 0.6875 C1.9825 2.3375 1.6525 3.9875 1.3125 5.6875 C0.9825 4.6975 0.6525 3.7075 0.3125 2.6875 C-0.863125 3.8940625 -0.863125 3.8940625 -2.0625 5.125 C-4.6875 7.6875 -4.6875 7.6875 -6.6875 8.6875 C-6.09018456 3.31166107 -6.09018456 3.31166107 -4.4375 0.75 C-2.6875 -0.3125 -2.6875 -0.3125 0 0 Z " fill="#E07F2A" transform="translate(219.6875,287.3125)"/>
<path d="M0 0 C0.99 0.33 1.98 0.66 3 1 C3 4.96 3 8.92 3 13 C0.70986347 9.5647952 0.82157027 8.014669 1 4 C0.01 4 -0.98 4 -2 4 C-1.34 2.68 -0.68 1.36 0 0 Z " fill="#E38122" transform="translate(180,269)"/>
<path d="M0 0 C0.33 0.99 0.66 1.98 1 3 C-0.6953125 5.6640625 -0.6953125 5.6640625 -3.125 8.625 C-4.30449219 10.09839844 -4.30449219 10.09839844 -5.5078125 11.6015625 C-8.13712081 14.13196266 -9.42400513 14.73275483 -13 15 C-12.319375 14.34 -11.63875 13.68 -10.9375 13 C-4.76039257 7.02832835 -4.76039257 7.02832835 0 0 Z " fill="#CF8B2D" transform="translate(354,243)"/>
<path d="M0 0 C5.46864457 1.01591421 10.76390013 2.07091057 16 4 C16 4.66 16 5.32 16 6 C15.43410156 5.85304687 14.86820313 5.70609375 14.28515625 5.5546875 C12.78065295 5.18949183 11.26689617 4.86024017 9.74609375 4.5703125 C8.98425781 4.42335937 8.22242188 4.27640625 7.4375 4.125 C6.67308594 3.98320312 5.90867188 3.84140625 5.12109375 3.6953125 C2.713545 2.90609762 1.62936974 1.9052694 0 0 Z " fill="#D88F2B" transform="translate(231,248)"/>
<path d="M0 0 C0.66 0.33 1.32 0.66 2 1 C0.52386015 2.50297876 -0.95599157 4.00231285 -2.4375 5.5 C-3.26121094 6.3353125 -4.08492188 7.170625 -4.93359375 8.03125 C-7 10 -7 10 -8 10 C-8 8.35 -8 6.7 -8 5 C-8.66 4.67 -9.32 4.34 -10 4 C-7.03 4.495 -7.03 4.495 -4 5 C-4 4.34 -4 3.68 -4 3 C-3.34 3 -2.68 3 -2 3 C-2 2.34 -2 1.68 -2 1 C-1.34 0.67 -0.68 0.34 0 0 Z " fill="#423D06" transform="translate(351,246)"/>
<path d="M0 0 C4.75 0.875 4.75 0.875 7 2 C6.67 3.65 6.34 5.3 6 7 C5.34 6.01 4.68 5.02 4 4 C3.01 4.99 2.02 5.98 1 7 C0.34 6.67 -0.32 6.34 -1 6 C-1 3 -1 3 0 0 Z " fill="#2F4020" transform="translate(276,227)"/>
<path d="M0 0 C0.33 0.66 0.66 1.32 1 2 C1.66 2 2.32 2 3 2 C3.33 3.65 3.66 5.3 4 7 C1 8 1 8 -2 7 C-2 5.35 -2 3.7 -2 2 C-1.34 2 -0.68 2 0 2 C0 1.34 0 0.68 0 0 Z " fill="#D4820F" transform="translate(249,135)"/>
<path d="M0 0 C0.66 0 1.32 0 2 0 C2 2.64 2 5.28 2 8 C1.67 8 1.34 8 1 8 C0.67 11.96 0.34 15.92 0 20 C-0.33 20 -0.66 20 -1 20 C-1.02703562 17.41659616 -1.04685611 14.83347692 -1.0625 12.25 C-1.07087891 11.52039063 -1.07925781 10.79078125 -1.08789062 10.0390625 C-1.10391684 6.51329442 -0.95292713 3.38965084 0 0 Z " fill="#C16305" transform="translate(227,111)"/>
<path d="M0 0 C3.36397083 0.60070908 5.56714867 1.56714867 8 4 C8.75 7.1875 8.75 7.1875 9 10 C8.01 9.67 7.02 9.34 6 9 C4.8125 6.4375 4.8125 6.4375 4 4 C2.35 4 0.7 4 -1 4 C-0.67 2.68 -0.34 1.36 0 0 Z " fill="#EB882A" transform="translate(237,286)"/>
<path d="M0 0 C0.33 0.66 0.66 1.32 1 2 C1.66 2.33 2.32 2.66 3 3 C2.030625 3.268125 1.06125 3.53625 0.0625 3.8125 C-0.948125 4.204375 -1.95875 4.59625 -3 5 C-3.33 5.99 -3.66 6.98 -4 8 C-4.66 8 -5.32 8 -6 8 C-6.33 7.01 -6.66 6.02 -7 5 C-4.87219421 2.65941363 -2.88437779 1.29299694 0 0 Z " fill="#D9E0C4" transform="translate(82,221)"/>
<path d="M0 0 C0.66 0.33 1.32 0.66 2 1 C2.125 3.375 2.125 3.375 2 6 C1.34 6.66 0.68 7.32 0 8 C-1.32 8 -2.64 8 -4 8 C-4 7.34 -4 6.68 -4 6 C-3.34 6 -2.68 6 -2 6 C-2 4.35 -2 2.7 -2 1 C-1.34 0.67 -0.68 0.34 0 0 Z " fill="#ECE9D3" transform="translate(143,219)"/>
<path d="M0 0 C0.33 0 0.66 0 1 0 C1.125 5.75 1.125 5.75 0 8 C0.33 8.99 0.66 9.98 1 11 C-0.98 12.32 -2.96 13.64 -5 15 C-3.33333333 10 -1.66666667 5 0 0 Z " fill="#434B30" transform="translate(267,209)"/>
<path d="M0 0 C2 3 2 3 2 5 C1.34 5 0.68 5 0 5 C0.33 6.98 0.66 8.96 1 11 C-0.98 11 -2.96 11 -5 11 C-5 10.34 -5 9.68 -5 9 C-4.01 8.34 -3.02 7.68 -2 7 C-0.7811879 3.44327821 -0.7811879 3.44327821 0 0 Z " fill="#1E370C" transform="translate(258,207)"/>
<path d="M0 0 C0.99 0.33 1.98 0.66 3 1 C2.2884375 2.051875 2.2884375 2.051875 1.5625 3.125 C-0.08739857 6.16081337 -0.60368464 8.59168786 -1 12 C-1.66 11.67 -2.32 11.34 -3 11 C-2.979375 10.21625 -2.95875 9.4325 -2.9375 8.625 C-2.81315937 6.01885039 -2.81315937 6.01885039 -4 4 C-2 1 -2 1 0 0 Z " fill="#F5A625" transform="translate(144,134)"/>
<path d="M0 0 C0.66 0 1.32 0 2 0 C1.67 2.97 1.34 5.94 1 9 C-2 8 -2 8 -4 5 C-4 4.01 -4 3.02 -4 2 C-2.68 2 -1.36 2 0 2 C0 1.34 0 0.68 0 0 Z " fill="#F1EDD8" transform="translate(88,236)"/>
<path d="M0 0 C-0.3125 3.375 -0.3125 3.375 -1 7 C-1.99 7.66 -2.98 8.32 -4 9 C-5 8 -5 8 -5.25 5.0625 C-5.1675 4.051875 -5.085 3.04125 -5 2 C-2 0 -2 0 0 0 Z " fill="#D7D5C0" transform="translate(217,186)"/>
<path d="M0 0 C3.465 1.98 3.465 1.98 7 4 C7 4.66 7 5.32 7 6 C7.61875 6.268125 8.2375 6.53625 8.875 6.8125 C11 8 11 8 13 11 C10.625 10.8125 10.625 10.8125 8 10 C7.690625 9.195625 7.38125 8.39125 7.0625 7.5625 C6.20990208 4.65720566 6.20990208 4.65720566 2.875 3.6875 C1.92625 3.460625 0.9775 3.23375 0 3 C0 2.01 0 1.02 0 0 Z " fill="#3F3702" transform="translate(335,204)"/>
<path d="M0 0 C2.64 0 5.28 0 8 0 C6.18182999 2.31459868 5.24384457 2.95377187 2.30078125 3.51171875 C1.31464844 3.56972656 0.32851562 3.62773437 -0.6875 3.6875 C-1.68136719 3.75324219 -2.67523438 3.81898438 -3.69921875 3.88671875 C-4.45847656 3.92410156 -5.21773437 3.96148437 -6 4 C-5.67 3.34 -5.34 2.68 -5 2 C-3.35 2 -1.7 2 0 2 C0 1.34 0 0.68 0 0 Z " fill="#EFAE10" transform="translate(161,159)"/>
<path d="M0 0 C0.33 0 0.66 0 1 0 C1.33 2.64 1.66 5.28 2 8 C4.31 8.33 6.62 8.66 9 9 C9 9.66 9 10.32 9 11 C6.25 11.3125 6.25 11.3125 3 11 C0.5625 8.875 0.5625 8.875 -1 6 C-0.75 2.6875 -0.75 2.6875 0 0 Z " fill="#B04B02" transform="translate(150,279)"/>
<path d="M0 0 C0.99 0.33 1.98 0.66 3 1 C3.33 3.31 3.66 5.62 4 8 C1.125 8.125 1.125 8.125 -2 8 C-2.66 7.34 -3.32 6.68 -4 6 C-3.34 5.01 -2.68 4.02 -2 3 C-1.67 3.99 -1.34 4.98 -1 6 C-0.34 6.33 0.32 6.66 1 7 C0.67 4.69 0.34 2.38 0 0 Z " fill="#485433" transform="translate(113,233)"/>
<path d="M0 0 C2.64 0 5.28 0 8 0 C8.33 0.99 8.66 1.98 9 3 C8.2575 2.979375 7.515 2.95875 6.75 2.9375 C4.29537721 2.99328688 2.33890739 3.3069904 0 4 C0 2.68 0 1.36 0 0 Z " fill="#31411F" transform="translate(78,219)"/>
<path d="M0 0 C0.66 0.33 1.32 0.66 2 1 C1.83628906 1.55171875 1.67257812 2.1034375 1.50390625 2.671875 C0.94239586 5.26614007 0.90260992 7.59835411 0.9375 10.25 C0.95103516 11.58804688 0.95103516 11.58804688 0.96484375 12.953125 C0.97644531 13.62859375 0.98804688 14.3040625 1 15 C-0.55078125 13.88671875 -0.55078125 13.88671875 -2 12 C-1.85546875 9.08203125 -1.85546875 9.08203125 -1.1875 5.8125 C-0.97480469 4.72582031 -0.76210938 3.63914063 -0.54296875 2.51953125 C-0.36378906 1.68808594 -0.18460937 0.85664063 0 0 Z " fill="#2F3C19" transform="translate(270,197)"/>
<path d="M0 0 C-0.99 0.495 -0.99 0.495 -2 1 C-2.33 1.99 -2.66 2.98 -3 4 C-5.64 4 -8.28 4 -11 4 C-4.14893617 -1.38297872 -4.14893617 -1.38297872 0 0 Z " fill="#413903" transform="translate(106,183)"/>
<path d="M0 0 C3.5865054 1.33213058 6.87682483 2.76916059 10 5 C10 5.99 10 6.98 10 8 C7 8 7 8 5 6.125 C4.34 5.42375 3.68 4.7225 3 4 C2.01 3.34 1.02 2.68 0 2 C0 1.34 0 0.68 0 0 Z " fill="#F29F28" transform="translate(245,116)"/>
<path d="M0 0 C0.66 0.99 1.32 1.98 2 3 C1.3203125 5.69921875 1.3203125 5.69921875 0.125 8.6875 C-0.26429688 9.68136719 -0.65359375 10.67523438 -1.0546875 11.69921875 C-1.52261719 12.83810547 -1.52261719 12.83810547 -2 14 C-2.66 13.67 -3.32 13.34 -4 13 C-3.52140759 11.39566191 -3.04210442 9.79153584 -2.5625 8.1875 C-2.29566406 7.29417969 -2.02882812 6.40085937 -1.75390625 5.48046875 C-1.19612127 3.64526945 -0.60655425 1.81966274 0 0 Z " fill="#AC4802" transform="translate(165,293)"/>
<path d="M0 0 C0.33 0 0.66 0 1 0 C1 1.65 1 3.3 1 5 C0.34 5 -0.32 5 -1 5 C-1.33 6.98 -1.66 8.96 -2 11 C-2.66 11 -3.32 11 -4 11 C-4.33 11.66 -4.66 12.32 -5 13 C-4.48474397 7.71862571 -2.74522883 4.42778844 0 0 Z " fill="#E88525" transform="translate(177,273)"/>
<path d="M0 0 C1.32 0.33 2.64 0.66 4 1 C4 1.66 4 2.32 4 3 C5.134375 3.268125 6.26875 3.53625 7.4375 3.8125 C8.613125 4.204375 9.78875 4.59625 11 5 C11.33 5.99 11.66 6.98 12 8 C9.8125 8.3125 9.8125 8.3125 7 8 C4.12425455 5.52552136 2.10382653 3.1557398 0 0 Z " fill="#403D0B" transform="translate(67,262)"/>
<path d="M0 0 C0.66 0.33 1.32 0.66 2 1 C1.75 3.375 1.75 3.375 1 6 C-1.0625 7.3125 -1.0625 7.3125 -3 8 C-3.66 6.68 -4.32 5.36 -5 4 C-4.01 3.34 -3.02 2.68 -2 2 C-2 2.66 -2 3.32 -2 4 C-1.34 3.34 -0.68 2.68 0 2 C0 1.34 0 0.68 0 0 Z " fill="#334022" transform="translate(88,229)"/>
<path d="M0 0 C0.33 1.32 0.66 2.64 1 4 C1.33 3.34 1.66 2.68 2 2 C2.66 2 3.32 2 4 2 C4 2.99 4 3.98 4 5 C2.35 5.33 0.7 5.66 -1 6 C-1.33 5.34 -1.66 4.68 -2 4 C-2.99 3.34 -3.98 2.68 -5 2 C-3.35 1.34 -1.7 0.68 0 0 Z " fill="#31411F" transform="translate(137,220)"/>
<path d="M0 0 C0 0.66 0 1.32 0 2 C-1.670625 2.12375 -1.670625 2.12375 -3.375 2.25 C-7.05753944 2.57873787 -7.05753944 2.57873787 -8.4375 5.0625 C-8.623125 5.701875 -8.80875 6.34125 -9 7 C-8.67 4.69 -8.34 2.38 -8 0 C-4.71303767 -0.79953138 -3.28976808 -1.09658936 0 0 Z " fill="#31411F" transform="translate(154,187)"/>
<path d="M0 0 C0 1.98 0 3.96 0 6 C-1.98 6 -3.96 6 -6 6 C-5.6875 4.125 -5.6875 4.125 -5 2 C-2 0 -2 0 0 0 Z " fill="#DD9213" transform="translate(275,143)"/>
<path d="M0 0 C0 0.99 0 1.98 0 3 C-0.66 3 -1.32 3 -2 3 C-2 3.66 -2 4.32 -2 5 C-1.01 5.33 -0.02 5.66 1 6 C-5.75 5.25 -5.75 5.25 -8 3 C-2.25 0 -2.25 0 0 0 Z " fill="#303806" transform="translate(257,249)"/>
<path d="M0 0 C0.99 0 1.98 0 3 0 C1.55746343 3.36591866 -0.33264727 5.51047079 -3 8 C-4.125 4.25 -4.125 4.25 -3 2 C-2.34 2 -1.68 2 -1 2 C-0.67 1.34 -0.34 0.68 0 0 Z " fill="#334122" transform="translate(287,203)"/>
<path d="M0 0 C1.1875 1.5 1.1875 1.5 2 4 C1.27101296 6.78824238 0.1843275 9.37665092 -1 12 C-1.66 12 -2.32 12 -3 12 C-2.68950274 10.56206608 -2.3765224 9.1246682 -2.0625 7.6875 C-1.88847656 6.88699219 -1.71445313 6.08648437 -1.53515625 5.26171875 C-1 3 -1 3 0 0 Z " fill="#2E3D1D" transform="translate(252,199)"/>
<path d="M0 0 C0.66 0.33 1.32 0.66 2 1 C0.81323934 5.10801767 0.10551666 6.89448334 -3 10 C-3 7.03 -3 4.06 -3 1 C-2.01 0.67 -1.02 0.34 0 0 Z " fill="#3B4529" transform="translate(159,189)"/>
<path d="M0 0 C0.99 0 1.98 0 3 0 C3 3.3 3 6.6 3 10 C2.01 9.34 1.02 8.68 0 8 C-0.40843923 5.28796348 -0.13336867 2.7562858 0 0 Z " fill="#F0EDD9" transform="translate(197,183)"/>
<path d="M0 0 C0.99 0.33 1.98 0.66 3 1 C2.01 2.485 2.01 2.485 1 4 C1 4.99 1 5.98 1 7 C0.34 7 -0.32 7 -1 7 C-1 7.66 -1 8.32 -1 9 C-1.99 8.67 -2.98 8.34 -4 8 C-2.68 5.36 -1.36 2.72 0 0 Z " fill="#333F20" transform="translate(173,178)"/>
<path d="M0 0 C0.66 0 1.32 0 2 0 C1.80743982 8.19256018 1.80743982 8.19256018 -1.5625 11.5625 C-2.366875 12.036875 -3.17125 12.51125 -4 13 C-3.29666462 10.02277453 -2.41751463 7.14743457 -1.4375 4.25 C-1.16808594 3.45078125 -0.89867187 2.6515625 -0.62109375 1.828125 C-0.41613281 1.22484375 -0.21117187 0.6215625 0 0 Z " fill="#F29F25" transform="translate(152,136)"/>
<path d="M0 0 C2.97 1.65 5.94 3.3 9 5 C9 6.32 9 7.64 9 9 C8.01 9.495 8.01 9.495 7 10 C6.95875 9.4225 6.9175 8.845 6.875 8.25 C5.57146669 4.89805721 2.95907372 3.88877046 0 2 C0 1.34 0 0.68 0 0 Z " fill="#F1A02D" transform="translate(274,134)"/>
<path d="M0 0 C0.66 0.33 1.32 0.66 2 1 C2 1.66 2 2.32 2 3 C2.99 3.33 3.98 3.66 5 4 C5.33 4.99 5.66 5.98 6 7 C5.34 7 4.68 7 4 7 C4 6.34 4 5.68 4 5 C3.01 5 2.02 5 1 5 C0.67 5.99 0.34 6.98 0 8 C-1.125 5.6875 -1.125 5.6875 -2 3 C-1.34 2.01 -0.68 1.02 0 0 Z " fill="#D28A25" transform="translate(52,248)"/>
<path d="M0 0 C0.66 0 1.32 0 2 0 C2 5.61 2 11.22 2 17 C1.01 17.33 0.02 17.66 -1 18 C-0.83628906 17.48953125 -0.67257812 16.9790625 -0.50390625 16.453125 C0.16698481 13.18708172 0.0933456 10.0813253 0.0625 6.75 C0.05347656 5.48671875 0.04445313 4.2234375 0.03515625 2.921875 C0.02355469 1.95765625 0.01195312 0.9934375 0 0 Z " fill="#C98B32" transform="translate(356,225)"/>
<path d="M0 0 C0.66 0.33 1.32 0.66 2 1 C2.59355614 3.64860427 2.74209269 6.29197322 3 9 C2.01 8.67 1.02 8.34 0 8 C-1.125 2.25 -1.125 2.25 0 0 Z " fill="#EDEBD5" transform="translate(111,231)"/>
<path d="M0 0 C0.99 0 1.98 0 3 0 C3.33 0.99 3.66 1.98 4 3 C5.65 3.33 7.3 3.66 9 4 C8.67 4.66 8.34 5.32 8 6 C5.75 6.25 5.75 6.25 3 6 C0.6875 4 0.6875 4 -1 2 C-0.67 1.34 -0.34 0.68 0 0 Z " fill="#34401F" transform="translate(130,225)"/>
<path d="M0 0 C2 3 2 3 1.3125 6.625 C0.879375 7.73875 0.44625 8.8525 0 10 C-0.99 10.33 -1.98 10.66 -3 11 C-2.11223998 7.30099992 -1.05418136 3.65449539 0 0 Z " fill="#344321" transform="translate(256,205)"/>
<path d="M0 0 C1.65 0.33 3.3 0.66 5 1 C5 2.32 5 3.64 5 5 C2.03 4.505 2.03 4.505 -1 4 C-0.67 2.68 -0.34 1.36 0 0 Z " fill="#CA5B02" transform="translate(156,146)"/>
<path d="M0 0 C0.66 0.33 1.32 0.66 2 1 C2.40729228 3.32156597 2.74438677 5.6568787 3 8 C2.01 7.67 1.02 7.34 0 7 C-1.1875 4.4375 -1.1875 4.4375 -2 2 C-1.34 1.34 -0.68 0.68 0 0 Z " fill="#2F4120" transform="translate(90,237)"/>
<path d="M0 0 C-0.33 1.32 -0.66 2.64 -1 4 C-2.98 4.33 -4.96 4.66 -7 5 C-7.33 3.68 -7.66 2.36 -8 1 C-2.25 0 -2.25 0 0 0 Z " fill="#313F1E" transform="translate(262,224)"/>
<path d="M0 0 C0.33 0.66 0.66 1.32 1 2 C1.99 2 2.98 2 4 2 C4.66 3.32 5.32 4.64 6 6 C3.69 5.67 1.38 5.34 -1 5 C-0.67 3.35 -0.34 1.7 0 0 Z " fill="#3B4528" transform="translate(252,216)"/>
<path d="M0 0 C0.66 0 1.32 0 2 0 C1.43628586 3.26954202 0.50037734 4.82575883 -2 7 C-2.99 6.67 -3.98 6.34 -5 6 C-3.38405168 3.95880212 -1.7143618 1.95927063 0 0 Z " fill="#EEF2D6" transform="translate(178,176)"/>
<path d="M0 0 C0.66 0 1.32 0 2 0 C1.5359375 1.1446875 1.5359375 1.1446875 1.0625 2.3125 C0.32106407 4.18789677 -0.36228217 6.08684652 -1 8 C-2.65 7.67 -4.3 7.34 -6 7 C-5.04882866 5.8274869 -4.08882991 4.66212985 -3.125 3.5 C-2.59132813 2.8503125 -2.05765625 2.200625 -1.5078125 1.53125 C-0.76144531 0.77328125 -0.76144531 0.77328125 0 0 Z " fill="#AA5508" transform="translate(270,163)"/>
<path d="M0 0 C0.66 0 1.32 0 2 0 C2 0.99 2 1.98 2 3 C3.98 2.67 5.96 2.34 8 2 C8 2.99 8 3.98 8 5 C5.6875 5.625 5.6875 5.625 3 6 C2.01 5.34 1.02 4.68 0 4 C0 2.68 0 1.36 0 0 Z " fill="#F5A525" transform="translate(181,119)"/>
<path d="M0 0 C1.60332791 -0.08121924 3.20784026 -0.13929134 4.8125 -0.1875 C6.15248047 -0.23970703 6.15248047 -0.23970703 7.51953125 -0.29296875 C10.41647515 0.04918998 11.22555028 0.75393573 13 3 C11.58249437 2.88490339 10.16598831 2.75746342 8.75 2.625 C7.96109375 2.55539063 7.1721875 2.48578125 6.359375 2.4140625 C3.914123 1.98492887 2.15163097 1.21399362 0 0 Z " fill="#474106" transform="translate(225,246)"/>
<path d="M0 0 C0.99 0.33 1.98 0.66 3 1 C1.35 4.63 -0.3 8.26 -2 12 C-2.33 12 -2.66 12 -3 12 C-2.14285714 3.42857143 -2.14285714 3.42857143 0 0 Z " fill="#CC8E2F" transform="translate(48,216)"/>
<path d="M0 0 C1.9451 2.91765 2.45276317 4.62537285 3 8 C1.68 8.33 0.36 8.66 -1 9 C-1.625 6.1875 -1.625 6.1875 -2 3 C-1.34 2.01 -0.68 1.02 0 0 Z " fill="#DADAC2" transform="translate(158,207)"/>
<path d="M0 0 C1.98 0 3.96 0 6 0 C3.19195732 2.96404505 0.81684226 5.44499019 -3 7 C-2.67 6.01 -2.34 5.02 -2 4 C-1.34 4 -0.68 4 0 4 C0 2.68 0 1.36 0 0 Z " fill="#CE8A2A" transform="translate(60,204)"/>
<path d="M0 0 C-0.33 0.99 -0.66 1.98 -1 3 C-3.31 3.33 -5.62 3.66 -8 4 C-7.67 3.01 -7.34 2.02 -7 1 C-4.53721199 -0.231394 -2.7204945 -0.07159196 0 0 Z " fill="#F28A11" transform="translate(92,185)"/>
<path d="M0 0 C0.66 0 1.32 0 2 0 C2.66 1.98 3.32 3.96 4 6 C2.35 6.33 0.7 6.66 -1 7 C-0.67 4.69 -0.34 2.38 0 0 Z " fill="#303E1E" transform="translate(156,216)"/>
<path d="M0 0 C0.99 0 1.98 0 3 0 C3.33 2.31 3.66 4.62 4 7 C2.68 6.34 1.36 5.68 0 5 C0 3.35 0 1.7 0 0 Z " fill="#193B18" transform="translate(345,216)"/>
<path d="M0 0 C-3.37097383 1.49821059 -5.20442119 2 -9 2 C-8.67 1.01 -8.34 0.02 -8 -1 C-4.71293093 -2.47351372 -2.99288606 -1.8171094 0 0 Z " fill="#EEEDD7" transform="translate(187,216)"/>
<path d="M0 0 C7.50769231 0.49230769 7.50769231 0.49230769 10 3.0625 C10.33 3.701875 10.66 4.34125 11 5 C9.53932801 4.54917531 8.08151968 4.08906463 6.625 3.625 C5.81289063 3.36976563 5.00078125 3.11453125 4.1640625 2.8515625 C2 2 2 2 0 0 Z " fill="#CD8C30" transform="translate(288,177)"/>
<path d="M0 0 C0.66 0 1.32 0 2 0 C2.33 2.97 2.66 5.94 3 9 C2.01 9.33 1.02 9.66 0 10 C0 6.7 0 3.4 0 0 Z " fill="#B84F01" transform="translate(227,138)"/>
<path d="M0 0 C3.465 1.98 3.465 1.98 7 4 C7 4.99 7 5.98 7 7 C5.68 7.33 4.36 7.66 3 8 C3.33 7.01 3.66 6.02 4 5 C3.01 4.319375 3.01 4.319375 2 3.625 C1.34 3.08875 0.68 2.5525 0 2 C0 1.34 0 0.68 0 0 Z " fill="#D68B29" transform="translate(281,269)"/>
<path d="M0 0 C1.32 0 2.64 0 4 0 C4 0.99 4 1.98 4 3 C2.02 3.66 0.04 4.32 -2 5 C-1.34 3.35 -0.68 1.7 0 0 Z " fill="#E48F22" transform="translate(122,272)"/>
<path d="M0 0 C0.99 0.99 1.98 1.98 3 3 C2.34 3.66 1.68 4.32 1 5 C-2.125 4.625 -2.125 4.625 -5 4 C-3.35 2.68 -1.7 1.36 0 0 Z " fill="#354323" transform="translate(118,229)"/>
<path d="M0 0 C2 3 2 3 2 7 C0.68 7 -0.64 7 -2 7 C-1.125 1.125 -1.125 1.125 0 0 Z " fill="#E0E2CB" transform="translate(286,219)"/>
<path d="M0 0 C0.99 0.99 1.98 1.98 3 3 C2.67 3.66 2.34 4.32 2 5 C0.35 5 -1.3 5 -3 5 C-2.625 3.0625 -2.625 3.0625 -2 1 C-1.34 0.67 -0.68 0.34 0 0 Z " fill="#31411F" transform="translate(217,210)"/>
<path d="M0 0 C0.66 0.33 1.32 0.66 2 1 C2.73075648 3.3140622 3.40138258 5.64828869 4 8 C2.68 8.33 1.36 8.66 0 9 C-1.125 3.375 -1.125 3.375 0 0 Z " fill="#2F411D" transform="translate(292,200)"/>
<path d="M0 0 C3.48331435 3.01887244 4.79157144 5.56909529 6 10 C2.46413986 6.82679218 0.41421969 4.83256305 0 0 Z " fill="#F4A129" transform="translate(176,141)"/>
<path d="M0 0 C0.66 0 1.32 0 2 0 C2.33 1.65 2.66 3.3 3 5 C1.02 5.33 -0.96 5.66 -3 6 C-1.125 1.125 -1.125 1.125 0 0 Z " fill="#E48225" transform="translate(238,291)"/>
<path d="M0 0 C3.72114571 2.31537955 6.61229661 4.28579473 9 8 C4.75153925 7.52794881 2.73180712 5.11122478 0 2 C0 1.34 0 0.68 0 0 Z " fill="#C5872E" transform="translate(67,263)"/>
<path d="M0 0 C2.375 0.3125 2.375 0.3125 5 1 C5.66 1.99 6.32 2.98 7 4 C6.34 4.66 5.68 5.32 5 6 C3.35 4.02 1.7 2.04 0 0 Z " fill="#3E3A05" transform="translate(61,256)"/>
<path d="M0 0 C1 2 1 2 0.0625 5.125 C-0.288125 6.07375 -0.63875 7.0225 -1 8 C-2.32 7.34 -3.64 6.68 -5 6 C-3.35 4.02 -1.7 2.04 0 0 Z " fill="#52533D" transform="translate(286,214)"/>
<path d="M0 0 C0.99 0 1.98 0 3 0 C3 1.65 3 3.3 3 5 C2.01 4.67 1.02 4.34 0 4 C0.33 4.99 0.66 5.98 1 7 C0.34 7 -0.32 7 -1 7 C-0.67 4.69 -0.34 2.38 0 0 Z " fill="#F6F2DA" transform="translate(266,200)"/>
<path d="M0 0 C0.66 0 1.32 0 2 0 C2 2.31 2 4.62 2 7 C1.01 6.67 0.02 6.34 -1 6 C-1.042721 4.33388095 -1.04063832 2.66617115 -1 1 C-0.67 0.67 -0.34 0.34 0 0 Z " fill="#F1F4DC" transform="translate(125,198)"/>
<path d="M0 0 C4.75 0.75 4.75 0.75 7 3 C5.02 3.33 3.04 3.66 1 4 C0.67 2.68 0.34 1.36 0 0 Z " fill="#353805" transform="translate(314,192)"/>
<path d="M0 0 C0 0.66 0 1.32 0 2 C-2.8125 3.5625 -2.8125 3.5625 -6 5 C-6.99 4.67 -7.98 4.34 -9 4 C-8.34 4 -7.68 4 -7 4 C-6.67 3.01 -6.34 2.02 -6 1 C-3.90006779 0.25486277 -2.22568901 0 0 0 Z " fill="#3A410C" transform="translate(147,167)"/>
<path d="M0 0 C1.32 0 2.64 0 4 0 C4 1.32 4 2.64 4 4 C2.35 4 0.7 4 -1 4 C-0.67 2.68 -0.34 1.36 0 0 Z " fill="#C26602" transform="translate(184,118)"/>
<path d="M0 0 C0.66 0.99 1.32 1.98 2 3 C1.67 3.99 1.34 4.98 1 6 C-0.32 6 -1.64 6 -3 6 C-2.42655063 3.13275314 -2.1385485 2.1385485 0 0 Z " fill="#F9A128" transform="translate(185,111)"/>
<path d="M0 0 C-0.61875 0.061875 -1.2375 0.12375 -1.875 0.1875 C-4.27117929 0.81740446 -4.27117929 0.81740446 -5.125 3.5 C-5.41375 4.325 -5.7025 5.15 -6 6 C-6.99 6.495 -6.99 6.495 -8 7 C-8.1875 4.625 -8.1875 4.625 -8 2 C-4.77208445 -0.1519437 -3.71599191 -0.20086443 0 0 Z " fill="#F2A328" transform="translate(184,105)"/>
<path d="M0 0 C0 1.32 0 2.64 0 4 C-1.32 4 -2.64 4 -4 4 C-4 3.34 -4 2.68 -4 2 C-4.66 1.67 -5.32 1.34 -6 1 C-4 0 -4 0 0 0 Z " fill="#F58615" transform="translate(321,281)"/>
<path d="M0 0 C1.32 0.33 2.64 0.66 4 1 C1.03 2.65 -1.94 4.3 -5 6 C-3 2 -3 2 0 0 Z " fill="#3B3902" transform="translate(125,263)"/>
<path d="M0 0 C1 3 1 3 0 6 C-2.0625 6.6875 -2.0625 6.6875 -4 7 C-4 6.01 -4 5.02 -4 4 C-3.34 4 -2.68 4 -2 4 C-1.34 2.68 -0.68 1.36 0 0 Z " fill="#F5F2DE" transform="translate(265,212)"/>
<path d="M0 0 C0.99 0.33 1.98 0.66 3 1 C2.6875 2.9375 2.6875 2.9375 2 5 C1.01 5.33 0.02 5.66 -1 6 C-0.67 4.02 -0.34 2.04 0 0 Z " fill="#EEEED6" transform="translate(257,192)"/>
<path d="M0 0 C-0.33 0.99 -0.66 1.98 -1 3 C-3.9375 2.625 -3.9375 2.625 -7 2 C-7.33 1.34 -7.66 0.68 -8 0 C-4.71303767 -0.79953138 -3.28976808 -1.09658936 0 0 Z " fill="#D78C26" transform="translate(289,174)"/>
<path d="M0 0 C0.33 0.99 0.66 1.98 1 3 C1.66 3 2.32 3 3 3 C2.25 7.75 2.25 7.75 0 10 C0 6.7 0 3.4 0 0 Z " fill="#ED8429" transform="translate(229,111)"/>
<path d="M0 0 C1.65 0 3.3 0 5 0 C4.67 1.32 4.34 2.64 4 4 C2.68 4 1.36 4 0 4 C0 2.68 0 1.36 0 0 Z " fill="#BE6201" transform="translate(195,109)"/>
<path d="M0 0 C0.99 0.33 1.98 0.66 3 1 C3 2.65 3 4.3 3 6 C0.525 5.01 0.525 5.01 -2 4 C-1.34 2.68 -0.68 1.36 0 0 Z " fill="#E17D26" transform="translate(251,292)"/>
<path d="M0 0 C3.36720387 1.39332574 4.9859524 2.9789286 7 6 C6.01 6 5.02 6 4 6 C3.67 5.34 3.34 4.68 3 4 C0.98330173 2.86649466 0.98330173 2.86649466 -1 2 C-0.67 1.34 -0.34 0.68 0 0 Z " fill="#CF8B28" transform="translate(58,255)"/>
<path d="M0 0 C0.66 0 1.32 0 2 0 C2.33 2.31 2.66 4.62 3 7 C2.34 7 1.68 7 1 7 C1 6.34 1 5.68 1 5 C0.34 5 -0.32 5 -1 5 C-1.33 4.01 -1.66 3.02 -2 2 C-1.34 1.34 -0.68 0.68 0 0 Z " fill="#273508" transform="translate(60,249)"/>
<path d="M0 0 C0.99 0.66 1.98 1.32 3 2 C2.67 2.99 2.34 3.98 2 5 C0.68 5 -0.64 5 -2 5 C-1.125 1.125 -1.125 1.125 0 0 Z " fill="#33351D" transform="translate(113,224)"/>
<path d="M0 0 C1.4540625 0.0309375 1.4540625 0.0309375 2.9375 0.0625 C2.6075 0.7225 2.2775 1.3825 1.9375 2.0625 C1.2775 2.0625 0.6175 2.0625 -0.0625 2.0625 C-0.0625 2.7225 -0.0625 3.3825 -0.0625 4.0625 C-1.0525 4.3925 -2.0425 4.7225 -3.0625 5.0625 C-3.625 3.125 -3.625 3.125 -4.0625 1.0625 C-3.0625 0.0625 -3.0625 0.0625 0 0 Z " fill="#D08A2B" transform="translate(54.0625,210.9375)"/>
<path d="M0 0 C0.99 0.33 1.98 0.66 3 1 C2.67 1.66 2.34 2.32 2 3 C-0.32156597 3.40729228 -2.6568787 3.74438677 -5 4 C-3.36587557 2.29159719 -2.13093906 1.06546953 0 0 Z " fill="#454006" transform="translate(93,187)"/>
<path d="M0 0 C0.33 0 0.66 0 1 0 C1.25 7.625 1.25 7.625 -1 11 C-1.66 11 -2.32 11 -3 11 C-3 10.01 -3 9.02 -3 8 C-2.34 7.67 -1.68 7.34 -1 7 C-0.59270772 4.67843403 -0.25561323 2.3431213 0 0 Z " fill="#E89F1D" transform="translate(226,131)"/>
<path d="M0 0 C2.31 0.33 4.62 0.66 7 1 C7 1.99 7 2.98 7 4 C4.97954558 3.39816251 2.97888961 2.72693904 1 2 C0.67 1.34 0.34 0.68 0 0 Z " fill="#BF5805" transform="translate(278,136)"/>
<path d="M0 0 C0.66 0 1.32 0 2 0 C2.33 1.32 2.66 2.64 3 4 C1.68 4.33 0.36 4.66 -1 5 C-1.33 4.01 -1.66 3.02 -2 2 C-1.34 2 -0.68 2 0 2 C0 1.34 0 0.68 0 0 Z " fill="#CC4701" transform="translate(181,109)"/>
</svg>
